<?xml version="1.0" encoding="UTF-8"?>
<svg width="36" height="36" xmlns="http://www.w3.org/2000/svg" xmlns:xlink="http://www.w3.org/1999/xlink">
 <title>blue cross</title>
 <defs>
  <linearGradient id="linearGradient1378">
   <stop stop-color="#ff8b8e" id="stop1380" offset="0"/>
   <stop stop-color="#b42314" stop-opacity="0.722408" id="stop1382" offset="1"/>
  </linearGradient>
  <linearGradient id="linearGradient1365">
   <stop stop-color="#f1140c" offset="0" id="stop1367"/>
   <stop stop-color="#8d1a02" offset="1" id="stop1370"/>
  </linearGradient>
  <linearGradient id="linearGradient1352">
   <stop stop-color="#982007" id="stop1354" offset="0"/>
   <stop stop-color="#510f02" id="stop1356" offset="1"/>
  </linearGradient>
  <linearGradient id="linearGradient1367">
   <stop stop-color="#f67e36" offset="0" id="stop1369"/>
   <stop stop-color="#602604" offset="1" id="stop1371"/>
  </linearGradient>
  <linearGradient id="linearGradient1347">
   <stop stop-color="#f0da27" id="stop1349" offset="0"/>
   <stop stop-color="#bf4d09" id="stop1351" offset="1"/>
  </linearGradient>
  <linearGradient id="linearGradient1315">
   <stop stop-color="#97ff82" id="stop1317" offset="0"/>
   <stop stop-color="#ceff24" stop-opacity="0" id="stop1319" offset="1"/>
  </linearGradient>
  <linearGradient id="linearGradient2122">
   <stop stop-color="#2edc32" id="stop2124" offset="0"/>
   <stop stop-color="#11661d" id="stop2126" offset="1"/>
  </linearGradient>
  <linearGradient id="linearGradient1364">
   <stop stop-color="#236b0d" id="stop1366" offset="0"/>
   <stop stop-color="#081b04" id="stop1368" offset="1"/>
  </linearGradient>
  <linearGradient y2="47.451466" x2="84.910713" y1="32.362179" x1="74.910713" gradientUnits="userSpaceOnUse" id="linearGradient1341" xlink:href="#linearGradient1364"/>
  <linearGradient y2="43.714283" x2="76.875" y1="34.428566" x1="73.839287" gradientUnits="userSpaceOnUse" id="linearGradient1343" xlink:href="#linearGradient2122"/>
  <linearGradient y2="47.375" x2="85" y1="35.589287" x1="72.946426" gradientUnits="userSpaceOnUse" id="linearGradient1345" xlink:href="#linearGradient1315"/>
  <radialGradient gradientTransform="matrix(1.211118e-16,1.330643,-1.347411,2.027373e-5,44.09678,-13.39507)" gradientUnits="userSpaceOnUse" r="27.5" fy="14.921703" fx="21.959658" cy="14.921703" cx="21.959658" id="radialGradient1353" xlink:href="#linearGradient1347"/>
  <radialGradient r="27.5" fy="14.921703" fx="21.959658" cy="14.921703" cx="21.959658" gradientTransform="matrix(1.211118e-16,1.330643,-1.347411,2.027373e-5,44.09678,-13.39507)" gradientUnits="userSpaceOnUse" id="radialGradient1357" xlink:href="#linearGradient1367"/>
  <radialGradient r="27.5" fy="14.921703" fx="21.959658" cy="14.921703" cx="21.959658" gradientTransform="matrix(1.211118e-16,1.330643,-1.347411,2.027373e-5,44.09678,-13.39507)" gradientUnits="userSpaceOnUse" id="radialGradient1375" xlink:href="#linearGradient1367"/>
  <radialGradient r="27.5" fy="14.921703" fx="21.959658" cy="14.921703" cx="21.959658" gradientTransform="matrix(1.211118e-16,1.330643,-1.347411,2.027373e-5,44.09678,-13.39507)" gradientUnits="userSpaceOnUse" id="radialGradient1381" xlink:href="#linearGradient1367"/>
  <radialGradient r="27.5" fy="14.921703" fx="21.959658" cy="14.921703" cx="21.959658" gradientTransform="matrix(1.211118e-16,1.330643,-1.347411,2.027373e-5,44.09678,-13.39507)" gradientUnits="userSpaceOnUse" id="radialGradient1383" xlink:href="#linearGradient1347"/>
  <linearGradient gradientUnits="userSpaceOnUse" y2="48.9771" x2="40.305344" y1="13.745695" x1="20.152672" id="linearGradient1358" xlink:href="#linearGradient1352"/>
  <linearGradient y2="48.9771" x2="40.305344" y1="13.745695" x1="20.152672" gradientUnits="userSpaceOnUse" id="linearGradient1362" xlink:href="#linearGradient1365"/>
  <linearGradient y2="48.9771" x2="40.305344" y1="13.745695" x1="20.152672" gradientUnits="userSpaceOnUse" id="linearGradient1374" xlink:href="#linearGradient1365"/>
  <linearGradient gradientUnits="userSpaceOnUse" y2="46.167938" x2="42.748093" y1="17.587786" x1="21.251909" id="linearGradient1384" xlink:href="#linearGradient1378"/>
  <linearGradient y2="48.9771" x2="40.305344" y1="13.745695" x1="20.152672" gradientUnits="userSpaceOnUse" id="linearGradient1391" xlink:href="#linearGradient1352"/>
  <linearGradient y2="48.9771" x2="40.305344" y1="13.745695" x1="20.152672" gradientUnits="userSpaceOnUse" id="linearGradient1393" xlink:href="#linearGradient1365"/>
  <linearGradient y2="46.167938" x2="42.748093" y1="17.587786" x1="21.251909" gradientUnits="userSpaceOnUse" id="linearGradient1395" xlink:href="#linearGradient1378"/>
  <linearGradient y2="48.9771" x2="40.305344" y1="13.745695" x1="20.152672" gradientUnits="userSpaceOnUse" id="linearGradient1400" xlink:href="#linearGradient1352"/>
  <linearGradient y2="46.167938" x2="42.748093" y1="13.923663" x1="20.030535" gradientUnits="userSpaceOnUse" id="linearGradient1402" xlink:href="#linearGradient1378"/>
  <linearGradient y2="48.9771" x2="40.305344" y1="13.745695" x1="20.152672" gradientUnits="userSpaceOnUse" id="linearGradient1409" xlink:href="#linearGradient1352"/>
  <linearGradient y2="48.9771" x2="40.305344" y1="13.745695" x1="20.152672" gradientUnits="userSpaceOnUse" id="linearGradient1411" xlink:href="#linearGradient1365"/>
  <linearGradient y2="46.167938" x2="42.748093" y1="13.923663" x1="20.030535" gradientUnits="userSpaceOnUse" id="linearGradient1413" xlink:href="#linearGradient1378"/>
  <linearGradient y2="48.9771" x2="40.305344" y1="13.745695" x1="20.152672" gradientUnits="userSpaceOnUse" id="linearGradient1418" xlink:href="#linearGradient1352"/>
  <linearGradient y2="43.60305" x2="43.480919" y1="18.931297" x1="20.152672" gradientUnits="userSpaceOnUse" id="linearGradient1422" xlink:href="#linearGradient1378"/>
  <linearGradient y2="48.9771" x2="40.305344" y1="13.745695" x1="20.152672" gradientUnits="userSpaceOnUse" id="linearGradient1429" xlink:href="#linearGradient1352"/>
  <linearGradient y2="48.9771" x2="40.305344" y1="13.745695" x1="20.152672" gradientUnits="userSpaceOnUse" id="linearGradient1431" xlink:href="#linearGradient1365"/>
  <linearGradient y2="43.60305" x2="43.480919" y1="18.931297" x1="20.152672" gradientUnits="userSpaceOnUse" id="linearGradient1433" xlink:href="#linearGradient1378"/>
  <linearGradient gradientTransform="matrix(0.889325,0.000000,0.000000,0.889325,3.541600,3.541600)" y2="46.761806" x2="47.84375" y1="17.420588" x1="18.504625" gradientUnits="userSpaceOnUse" id="linearGradient1436" xlink:href="#linearGradient1378"/>
  <linearGradient gradientTransform="matrix(0.889325,0.000000,0.000000,0.889325,3.541600,3.541600)" y2="48.9771" x2="40.305344" y1="13.745695" x1="20.152672" gradientUnits="userSpaceOnUse" id="linearGradient1439" xlink:href="#linearGradient1365"/>
  <linearGradient gradientTransform="matrix(0.889325,0.000000,0.000000,0.889325,3.541600,3.541600)" y2="48.9771" x2="40.305344" y1="13.745695" x1="20.152672" gradientUnits="userSpaceOnUse" id="linearGradient1442" xlink:href="#linearGradient1352"/>
  <linearGradient y2="48.9771" x2="40.305344" y1="13.745695" x1="20.152672" gradientTransform="matrix(0.889325,0.000000,0.000000,0.889325,3.541600,3.541600)" gradientUnits="userSpaceOnUse" id="linearGradient1449" xlink:href="#linearGradient1352"/>
  <linearGradient y2="48.9771" x2="40.305344" y1="13.745695" x1="20.152672" gradientTransform="matrix(0.889325,0.000000,0.000000,0.889325,3.541600,3.541600)" gradientUnits="userSpaceOnUse" id="linearGradient1451" xlink:href="#linearGradient1365"/>
  <linearGradient y2="46.761806" x2="47.84375" y1="17.420588" x1="18.504625" gradientTransform="matrix(0.889325,0.000000,0.000000,0.889325,3.541600,3.541600)" gradientUnits="userSpaceOnUse" id="linearGradient1453" xlink:href="#linearGradient1378"/>
  <linearGradient y2="46.761806" x2="47.84375" y1="17.420588" x1="18.504625" gradientTransform="matrix(0.889325,0.000000,0.000000,0.889325,3.541593,3.541600)" gradientUnits="userSpaceOnUse" id="linearGradient1456" xlink:href="#linearGradient1378"/>
  <linearGradient y2="48.9771" x2="40.305344" y1="13.745695" x1="20.152672" gradientTransform="matrix(0.889325,0.000000,0.000000,0.889325,-50.24727,-11.63251)" gradientUnits="userSpaceOnUse" id="linearGradient1459" xlink:href="#linearGradient1365"/>
  <linearGradient y2="48.9771" x2="40.305344" y1="13.745695" x1="20.152672" gradientTransform="matrix(0.889325,0.000000,0.000000,0.889325,3.541600,3.541600)" gradientUnits="userSpaceOnUse" id="linearGradient1462" xlink:href="#linearGradient1352"/>
  <linearGradient y2="46.761806" x2="47.84375" y1="17.420588" x1="18.504625" gradientTransform="matrix(0.889325,0.000000,0.000000,0.889325,-32.54864,2.451357)" gradientUnits="userSpaceOnUse" id="linearGradient1466" xlink:href="#linearGradient1378"/>
  <linearGradient y2="46.761806" x2="47.84375" y1="17.420588" x1="18.504625" gradientTransform="matrix(0.889325,0.000000,0.000000,0.889325,-32.54864,2.451357)" gradientUnits="userSpaceOnUse" id="linearGradient1470" xlink:href="#linearGradient1365"/>
  <linearGradient y2="46.761806" x2="47.84375" y1="17.420588" x1="18.504625" gradientTransform="matrix(0.889325,0.000000,0.000000,0.889325,3.541593,3.541600)" gradientUnits="userSpaceOnUse" id="linearGradient1474" xlink:href="#linearGradient1378"/>
  <linearGradient y2="0.965016" x2="0.727465" y1="0" x1="0.175527" id="linearGradient1483" xlink:href="#linearGradient1352"/>
  <linearGradient y2="0.935896" x2="0.967792" y1="0.070351" x1="0.10176" id="linearGradient1485" xlink:href="#linearGradient1365"/>
  <linearGradient y2="0.957238" x2="0.99075" y1="0.048412" x1="0.081989" id="linearGradient1487" xlink:href="#linearGradient1378"/>
 </defs>
 <metadata id="metadata7">image/svg+xmlCross2005-10-27Jean-Victor Balinjean.victor.balin@gmail.comicon</metadata>
 <g>
  <title>Layer 1</title>
  <g id="layer1">
   <g id="g1478">
    <path fill="#007fff" stroke-width="2" stroke-linecap="round" stroke-linejoin="round" stroke-miterlimit="4" d="m2.025101,7.21133c-0.376011,0.45376 -0.34185,1.1199 0.0786,1.53282l9.255859,9.25585l-9.255859,9.255852c-0.214991,0.21299 -0.335951,0.503078 -0.335951,0.805717c0,0.302631 0.12096,0.59272 0.335951,0.80571l5.03079,5.030781c0.21299,0.215 0.503069,0.335949 0.80571,0.335949c0.302629,0 0.59272,-0.120949 0.80571,-0.335949l9.255848,-9.255859l9.255852,9.255859c0.21299,0.215 0.503078,0.335949 0.80571,0.335949c0.302639,0 0.59272,-0.120949 0.80571,-0.335949l5.030788,-5.030781c0.214993,-0.21299 0.335953,-0.503078 0.335953,-0.80571c0,-0.302639 -0.12096,-0.592728 -0.335953,-0.805717l-9.255848,-9.255852l9.255848,-9.25585c0.214993,-0.21299 0.335953,-0.50308 0.335953,-0.80571c0,-0.302641 -0.12096,-0.59273 -0.335953,-0.805719l-5.030788,-5.030781c-0.21299,-0.215 -0.503071,-0.335951 -0.80571,-0.335951c-0.302631,0 -0.59272,0.120951 -0.80571,0.335951l-9.255852,9.255859l-9.255848,-9.255859c-0.21299,-0.215 -0.50308,-0.335951 -0.80571,-0.335951c-0.302641,0 -0.59272,0.120951 -0.80571,0.335951l-5.03079,5.030781c-0.027472,0.02491 -0.053701,0.05114 -0.0786,0.078609z" id="path1349"/>
    <path fill="#007fff" stroke-width="2" stroke-linecap="round" stroke-linejoin="round" stroke-miterlimit="4" d="m7.71875,2.947048c-0.179831,0.047228 -0.342451,0.144798 -0.46875,0.281248l-4.03125,4.03125c-0.377159,0.380741 -0.377159,0.994261 0,1.375002l9.375,9.375l-9.375,9.374996c-0.377159,0.380741 -0.377159,0.994263 0,1.375l4.03125,4.031254c0.380741,0.377159 0.994259,0.377159 1.375,0l9.375,-9.375004l9.375,9.375004c0.380741,0.377159 0.994261,0.377159 1.375,0l4.03125,-4.031254c0.377159,-0.380737 0.377159,-0.994259 0,-1.375l-9.375,-9.374996l9.375,-9.375c0.377159,-0.380741 0.377159,-0.994261 0,-1.375002l-4.03125,-4.03125c-0.380739,-0.377159 -0.994259,-0.377159 -1.375,0l-9.375,9.375002l-9.375,-9.375002c-0.23321,-0.24402 -0.575859,-0.350359 -0.90625,-0.281248z" id="path1468"/>
    <path fill="#007fff" stroke-width="2" stroke-linecap="round" stroke-linejoin="round" stroke-miterlimit="4" d="m7.84375,3.65625c-0.03546,0.0137 -0.067459,0.03504 -0.09375,0.0625l-4.03125,4.03125c-0.031891,0.03516 -0.053511,0.0784 -0.0625,0.125c-0.016081,0.05084 -0.016081,0.10541 0,0.15625c0.0137,0.03546 0.03504,0.067459 0.0625,0.09375l9.5625,9.5625c0.087799,0.083748 0.15625,0.198402 0.15625,0.3125c0,0.114101 -0.068439,0.228748 -0.15625,0.3125l-9.5625,9.5625c-0.031891,0.03516 -0.053511,0.0784 -0.0625,0.125c-0.016081,0.050838 -0.016081,0.105412 0,0.15625c0.0137,0.035461 0.03504,0.067459 0.0625,0.09375l4.03125,4.03125c0.03516,0.031891 0.0784,0.053509 0.125,0.0625c0.05084,0.016079 0.10541,0.016079 0.15625,0c0.03546,-0.01371 0.067459,-0.035042 0.09375,-0.0625l9.5625,-9.5625c0.08375,-0.087811 0.1984,-0.15625 0.3125,-0.15625c0.114101,0 0.228741,0.068439 0.3125,0.15625l9.5625,9.5625c0.03516,0.031891 0.0784,0.053509 0.125,0.0625c0.050838,0.016079 0.105412,0.016079 0.15625,0c0.035461,-0.01371 0.067459,-0.035042 0.09375,-0.0625l4.03125,-4.03125c0.031891,-0.03516 0.053509,-0.0784 0.0625,-0.125c0.016079,-0.050838 0.016079,-0.105412 0,-0.15625c-0.01371,-0.035461 -0.035042,-0.067459 -0.0625,-0.09375l-9.5625,-9.5625c-0.087811,-0.083752 -0.15625,-0.198399 -0.15625,-0.3125c0,-0.114098 0.068439,-0.228752 0.15625,-0.3125l9.5625,-9.5625c0.031891,-0.03516 0.053509,-0.0784 0.0625,-0.125c0.016079,-0.05084 0.016079,-0.10541 0,-0.15625c-0.01371,-0.03546 -0.035042,-0.067459 -0.0625,-0.09375l-4.03125,-4.03125c-0.03516,-0.031891 -0.0784,-0.053511 -0.125,-0.0625c-0.050838,-0.016081 -0.105412,-0.016081 -0.15625,0c-0.035461,0.0137 -0.067459,0.03504 -0.09375,0.0625l-9.5625,9.5625c-0.083752,0.087799 -0.198399,0.15625 -0.3125,0.15625c-0.1141,0 -0.22875,-0.068439 -0.3125,-0.15625l-9.5625,-9.5625c-0.03516,-0.031891 -0.0784,-0.053511 -0.125,-0.0625c-0.05084,-0.016081 -0.10541,-0.016081 -0.15625,0z" id="path1472"/>
   </g>
  </g>
 </g>
</svg>