<?xml version="1.0" encoding="utf-8"?>
<!-- Generator: Adobe Illustrator 16.0.0, SVG Export Plug-In . SVG Version: 6.00 Build 0)  -->
<!DOCTYPE svg PUBLIC "-//W3C//DTD SVG 1.1//EN" "http://www.w3.org/Graphics/SVG/1.1/DTD/svg11.dtd">
<svg version="1.1" id="Layer_1" xmlns="http://www.w3.org/2000/svg" xmlns:xlink="http://www.w3.org/1999/xlink" x="0px" y="0px"
	 width="44px" height="44px" viewBox="0 0 44 44" enable-background="new 0 0 44 44" xml:space="preserve">
<g>
	<path fill="#1F3360" d="M11.967,3.044c0.469-0.003,0.946,0.147,1.131,0.431c0.239,0.37,0.049,1.773,0.04,2.341
		c-0.026,2.053-0.055,4.107-0.082,6.16c-0.001,1.349,0.202,2.755-1.009,2.917c-1.325,0.177-1.215-1.874-1.232-3.06
		c0-0.986,0-1.971,0-2.957c0.015-0.533,0.026-1.067,0.041-1.602c0.021-0.521,0.041-1.041,0.062-1.561
		c0.151-0.969-0.095-2.073,0.575-2.505C11.651,3.154,11.809,3.099,11.967,3.044z M31.403,3.25c0.481,0.003,0.938,0.175,1.133,0.472
		c0.373,0.572,0.309,1.691,0.309,2.608c-0.014,1.369-0.027,2.738-0.041,4.107c-0.015,0.541-0.027,1.081-0.042,1.621
		c-0.19,1.224,0.378,2.686-0.862,2.876c-0.438,0.067-1.06-0.155-1.174-0.432c0-0.767,0-1.534,0-2.299
		c0-2.113-0.123-4.076-0.123-6.139c0-0.648-0.13-2.144,0.164-2.526C30.911,3.351,31.17,3.351,31.403,3.25z M13.756,9.164
		c5.333,0.028,10.668,0.055,16.002,0.082c0,1.061,0,2.123,0,3.183c-0.064,0.394-0.206,0.656-0.288,1.027
		c-0.271,1.226,0.354,1.994,1.05,2.402c1.361,0.803,3.707-0.371,3.373-2.034c-0.082-0.407-0.304-0.689-0.515-0.965
		c0.164-1.149,0.329-2.3,0.493-3.45c1.81-0.082,3.619-0.164,5.43-0.246c0.164,2.655,0.329,5.312,0.494,7.967
		c-11.93-0.041-23.862-0.083-35.791-0.124c0.124-2.614,0.247-5.229,0.37-7.844c1.818-0.005,3.83-0.148,5.512,0.103
		c0.042,0.903,0.082,1.807,0.124,2.71c0,0.274,0,0.548,0,0.822c-0.05,0.293-0.194,0.44-0.247,0.718
		c-0.244,1.322,0.596,2.129,1.481,2.341c1.366,0.328,2.433-0.303,2.86-1.088c0.393-0.726,0.303-1.696-0.516-1.91
		C13.647,11.627,13.702,10.396,13.756,9.164z M39.797,18.527c0.521,6.31,1.042,12.625,1.563,18.933
		c-12.861,0.123-25.728,0.246-38.588,0.369c0.371-6.35,0.74-12.703,1.111-19.056C15.854,18.692,27.825,18.609,39.797,18.527z
		 M11.514,25.222c1.057,0,2.11,0,3.167,0c0.046-0.879,0.587-1.863,1.255-2.135c1.233-0.502,1.801,0.754,1.521,1.85
		c-0.396,1.555-2.289,3.402-3.415,4.311c-0.63,0.617-1.263,1.232-1.894,1.85c-0.541,0.506-1.082,1.014-1.625,1.52
		c-0.115,0.713-0.232,1.424-0.349,2.135c3.093-0.006,6.185-0.014,9.277-0.02c0.131-0.828,0.26-1.656,0.39-2.484
		c-1.212,0-2.427,0-3.641,0c-0.33,0-1.11,0.119-1.338-0.041c0.063-0.061,0.125-0.123,0.187-0.186
		c0.459-0.479,0.92-0.959,1.378-1.438c1.233-1.525,2.944-2.57,3.866-4.416c0.485-0.971,0.729-2.842,0.124-3.881
		c-0.842-1.436-3.063-2.254-5.286-1.561C13.424,21.257,11.543,23.06,11.514,25.222z M32.987,20.703c-2.59,0-5.184,0-7.773,0
		c0,0.015,0,0.027,0,0.042c-0.673,2.615-1.344,5.23-2.018,7.844c0.961,0.057,1.92,0.111,2.881,0.164
		c0.201-0.646,1.4-1.404,2.223-0.799c0.6,0.441,0.532,1.971,0.287,2.791c-0.188,0.625-0.475,1.26-0.986,1.561
		c-0.205,0.119-0.576,0.184-0.886,0.123c-0.905-0.174-1.002-0.768-0.968-1.766c-0.78,0.055-1.563,0.111-2.344,0.164
		c-0.25,0.039-0.689-0.057-0.844,0.082c-0.479,0.996,0.358,2.371,0.783,2.795c1.81,1.807,5.562,1.574,7.097-0.328
		c0.668-0.834,1.164-1.711,1.438-2.959c0.576-2.609-0.311-4.451-2.447-4.846c-0.369-0.068-0.878-0.104-1.275-0.021
		c-0.613,0.125-1.022,0.396-1.502,0.596c0.262-0.979,0.521-1.957,0.781-2.938c1.721,0,3.443,0,5.163,0
		C32.728,22.374,32.858,21.539,32.987,20.703z M38.976,38.733c0.713,0,1.426,0,2.139,0c0,0.008,0,0.016,0,0.021
		c-0.315,0.924-0.631,1.85-0.945,2.771C28.028,41.56,15.881,41.595,3.741,41.63c-0.28-0.889-0.563-1.779-0.844-2.67
		c0-0.008,0-0.014,0-0.02C14.92,38.87,26.948,38.802,38.976,38.733z"/>
</g>
</svg>
