<?xml version="1.0" encoding="utf-8"?>
<!-- Generator: Adobe Illustrator 17.0.0, SVG Export Plug-In . SVG Version: 6.00 Build 0)  -->
<!DOCTYPE svg PUBLIC "-//W3C//DTD SVG 1.1//EN" "http://www.w3.org/Graphics/SVG/1.1/DTD/svg11.dtd">
<svg version="1.1" id="Layer_1" xmlns="http://www.w3.org/2000/svg" xmlns:xlink="http://www.w3.org/1999/xlink" x="0px" y="0px"
	 width="25px" height="25px" viewBox="0 0 25 25" enable-background="new 0 0 25 25" xml:space="preserve">
<path id="CALENDAR_1_" fill-rule="evenodd" clip-rule="evenodd" fill="#3498DB" d="M23.828,25H1.172C0.525,25,0,24.475,0,23.828
	V4.297C0,3.65,0.525,3.125,1.172,3.125h2.344v1.172c0,1.51,1.224,2.734,2.734,2.734c1.51,0,2.734-1.224,2.734-2.734V3.125h7.031
	v1.172c0,1.51,1.224,2.734,2.734,2.734c1.51,0,2.734-1.224,2.734-2.734V3.125h2.344C24.475,3.125,25,3.65,25,4.297v19.531
	C25,24.475,24.475,25,23.828,25z M22.656,9.375H2.344v13.281h20.312V9.375z M7.733,17.467c0.203-0.24,0.442-0.462,0.716-0.665
	c0.274-0.203,0.564-0.41,0.868-0.62c0.156-0.108,0.322-0.218,0.498-0.33c0.176-0.112,0.337-0.235,0.482-0.371
	c0.146-0.135,0.267-0.288,0.366-0.457c0.098-0.169,0.147-0.362,0.147-0.579c0-0.345-0.1-0.614-0.3-0.807
	c-0.2-0.193-0.455-0.29-0.767-0.29c-0.21,0-0.388,0.049-0.533,0.147c-0.146,0.098-0.262,0.227-0.35,0.386
	c-0.088,0.159-0.151,0.335-0.188,0.528c-0.037,0.193-0.056,0.384-0.056,0.574H7.235c-0.014-0.406,0.034-0.784,0.142-1.132
	c0.108-0.349,0.271-0.653,0.487-0.914c0.217-0.261,0.489-0.464,0.818-0.609c0.328-0.145,0.706-0.218,1.132-0.218
	c0.325,0,0.635,0.051,0.929,0.152c0.295,0.102,0.553,0.247,0.777,0.437c0.223,0.19,0.401,0.423,0.533,0.701
	c0.132,0.278,0.198,0.589,0.198,0.934c0,0.359-0.058,0.667-0.173,0.924c-0.115,0.257-0.268,0.486-0.457,0.686
	c-0.19,0.2-0.405,0.381-0.645,0.543c-0.24,0.163-0.482,0.323-0.726,0.482c-0.244,0.159-0.481,0.33-0.711,0.513
	c-0.23,0.183-0.433,0.396-0.609,0.64h3.362v1.239h-5.22c0-0.413,0.059-0.772,0.178-1.077C7.369,17.98,7.53,17.707,7.733,17.467z
	 M14.497,18.025c0.21,0.193,0.477,0.289,0.802,0.289c0.189,0,0.361-0.039,0.513-0.117c0.152-0.078,0.281-0.179,0.386-0.305
	c0.105-0.125,0.186-0.271,0.244-0.437c0.057-0.166,0.086-0.337,0.086-0.513c0-0.183-0.027-0.355-0.081-0.518
	c-0.054-0.163-0.135-0.305-0.244-0.427c-0.108-0.122-0.237-0.217-0.386-0.284c-0.149-0.068-0.322-0.102-0.518-0.102
	c-0.257,0-0.467,0.046-0.63,0.137c-0.162,0.091-0.315,0.235-0.457,0.432h-1.3l0.701-3.93h3.971v1.188h-2.935l-0.284,1.615l0.02,0.02
	c0.196-0.196,0.406-0.337,0.63-0.421c0.223-0.085,0.477-0.127,0.762-0.127c0.352,0,0.663,0.064,0.934,0.193
	c0.271,0.129,0.499,0.301,0.686,0.518c0.186,0.217,0.328,0.472,0.427,0.767c0.098,0.295,0.147,0.608,0.147,0.939
	c0,0.366-0.071,0.706-0.213,1.021c-0.142,0.315-0.334,0.587-0.574,0.818c-0.24,0.23-0.52,0.408-0.838,0.533
	c-0.318,0.125-0.657,0.184-1.016,0.178c-0.345,0-0.675-0.046-0.99-0.137c-0.315-0.091-0.594-0.232-0.838-0.421
	c-0.244-0.189-0.438-0.425-0.584-0.706c-0.146-0.281-0.222-0.608-0.229-0.98h1.442C14.165,17.573,14.287,17.832,14.497,18.025z
	 M18.75,5.469c-0.647,0-1.172-0.525-1.172-1.172V1.172C17.578,0.525,18.103,0,18.75,0s1.172,0.525,1.172,1.172v3.125
	C19.922,4.944,19.397,5.469,18.75,5.469z M6.25,5.469c-0.647,0-1.172-0.525-1.172-1.172V1.172C5.078,0.525,5.603,0,6.25,0
	s1.172,0.525,1.172,1.172v3.125C7.422,4.944,6.897,5.469,6.25,5.469z"/>
</svg>
