<?xml version="1.0" encoding="utf-8"?>
<!-- Generator: Adobe Illustrator 16.0.0, SVG Export Plug-In . SVG Version: 6.00 Build 0)  -->
<!DOCTYPE svg PUBLIC "-//W3C//DTD SVG 1.1//EN" "http://www.w3.org/Graphics/SVG/1.1/DTD/svg11.dtd">
<svg version="1.1"
	 id="svg3358" xmlns:rdf="http://www.w3.org/1999/02/22-rdf-syntax-ns#" xmlns:cc="http://creativecommons.org/ns#" xmlns:dc="http://purl.org/dc/elements/1.1/" xmlns:svg="http://www.w3.org/2000/svg"
	 xmlns="http://www.w3.org/2000/svg" xmlns:xlink="http://www.w3.org/1999/xlink" x="0px" y="0px" width="250px" height="131.768px"
	 viewBox="275 159.116 250 131.768" enable-background="new 275 159.116 250 131.768" xml:space="preserve">
<g id="layer1" transform="translate(0,-602.36218)">
	<path id="path268" fill="#C4122E" d="M356.67,892.473h-10.962v-43.441h10.962V892.473z"/>
	<g id="g270" transform="matrix(10.337276,0,0,-10.337276,-861.34511,8446.2018)">
		<g>
			<g id="g272">
				<g id="g278" transform="translate(134.9958,727.2001)">
					<path id="path280" fill="#C4122E" d="M-8.618,6.525C-8.661,6.548-9.003,6.75-9.51,6.75c-0.685,0-1.161-0.477-1.161-1.121
						c0-0.624,0.455-1.122,1.161-1.122c0.499,0,0.846,0.198,0.892,0.223V3.602c-0.133-0.037-0.495-0.149-0.966-0.149
						c-1.193,0-2.24,0.822-2.24,2.176c0,1.255,0.947,2.175,2.24,2.175c0.497,0,0.866-0.121,0.966-0.151V6.525z"/>
				</g>
				<g id="g282" transform="translate(102.0426,727.2001)">
					<path id="path284" fill="#C4122E" d="M13.267,6.525c-0.043,0.022-0.384,0.224-0.891,0.224c-0.687,0-1.162-0.477-1.162-1.121
						c0-0.624,0.455-1.122,1.162-1.122c0.498,0,0.845,0.198,0.891,0.223V3.602c-0.132-0.037-0.493-0.149-0.967-0.149
						c-1.192,0-2.238,0.822-2.238,2.176c0,1.255,0.947,2.175,2.238,2.175c0.499,0,0.867-0.121,0.967-0.151V6.525z"/>
				</g>
				<g id="g286" transform="translate(144.9274,727.8212)">
					<path id="path288" fill="#C4122E" d="M-15.214,6.113c-0.629,0-1.096-0.495-1.096-1.105c0-0.611,0.467-1.106,1.096-1.106
						c0.629,0,1.097,0.495,1.097,1.106C-14.117,5.618-14.585,6.113-15.214,6.113 M-12.993,5.008c0-1.202-0.928-2.176-2.221-2.176
						c-1.292,0-2.219,0.974-2.219,2.176c0,1.2,0.927,2.175,2.219,2.175C-13.921,7.183-12.993,6.208-12.993,5.008"/>
				</g>
				<g id="g290" transform="translate(121.5124,727.9413)">
					<path id="path292" fill="#C4122E" d="M0.337,6.033C0.321,6.038-0.126,6.161-0.493,6.161c-0.425,0-0.656-0.142-0.656-0.344
						c0-0.256,0.312-0.345,0.486-0.4l0.293-0.093c0.688-0.219,1.002-0.69,1.002-1.202c0-1.056-0.928-1.41-1.74-1.41
						c-0.564,0-1.092,0.104-1.144,0.115v0.967c0.093-0.024,0.538-0.156,1.001-0.156c0.528,0,0.77,0.154,0.77,0.392
						c0,0.213-0.21,0.336-0.473,0.419C-1.018,4.469-1.114,4.499-1.18,4.521c-0.59,0.187-1.083,0.534-1.083,1.229
						c0,0.786,0.588,1.314,1.566,1.314c0.516,0,1.002-0.125,1.034-0.134V6.033z"/>
				</g>
				<g id="g294" transform="translate(89.154,744.2304)">
					<path id="path296" fill="#15495D" d="M21.826-4.785c0,0.29-0.236,0.524-0.526,0.524c-0.29,0-0.527-0.235-0.527-0.524v-1.103
						c0-0.291,0.237-0.526,0.527-0.526c0.29,0,0.526,0.235,0.526,0.526V-4.785z"/>
				</g>
				<g id="g298" transform="translate(97.7633,748.5409)">
					<path id="path300" fill="#15495D" d="M16.108-7.647c0,0.29-0.236,0.525-0.526,0.525c-0.29,0-0.527-0.235-0.527-0.525v-2.551
						c0-0.291,0.236-0.526,0.527-0.526c0.29,0,0.526,0.235,0.526,0.526V-7.647z"/>
				</g>
				<g id="g302" transform="translate(106.3727,754.4384)">
					<path id="path304" fill="#15495D" d="M10.391-11.564c0,0.29-0.237,0.525-0.526,0.525c-0.29,0-0.527-0.235-0.527-0.525v-5.58
						c0-0.291,0.237-0.526,0.527-0.526c0.29,0,0.526,0.235,0.526,0.526V-11.564z"/>
				</g>
				<g id="g306" transform="translate(114.9821,748.5409)">
					<path id="path308" fill="#15495D" d="M4.673-7.647c0,0.29-0.236,0.525-0.526,0.525c-0.29,0-0.527-0.235-0.527-0.525v-2.551
						c0-0.291,0.236-0.526,0.527-0.526c0.29,0,0.526,0.235,0.526,0.526V-7.647z"/>
				</g>
				<g id="g310" transform="translate(123.5817,744.2304)">
					<path id="path312" fill="#15495D" d="M-1.038-4.785c0,0.29-0.235,0.524-0.523,0.524c-0.29,0-0.526-0.235-0.526-0.524v-1.103
						c0-0.291,0.237-0.526,0.526-0.526c0.289,0,0.523,0.235,0.523,0.526V-4.785z"/>
				</g>
				<g id="g314" transform="translate(132.195,748.5409)">
					<path id="path316" fill="#15495D" d="M-6.758-7.647c0,0.29-0.235,0.525-0.525,0.525c-0.29,0-0.525-0.235-0.525-0.525v-2.551
						c0-0.291,0.235-0.526,0.525-0.526c0.29,0,0.525,0.235,0.525,0.526V-7.647z"/>
				</g>
				<g id="g318" transform="translate(140.8102,754.4384)">
					<path id="path320" fill="#15495D" d="M-12.479-11.564c0,0.29-0.235,0.525-0.525,0.525c-0.29,0-0.525-0.235-0.525-0.525v-5.58
						c0-0.291,0.235-0.526,0.525-0.526c0.29,0,0.525,0.235,0.525,0.526V-11.564z"/>
				</g>
				<g id="g322" transform="translate(149.4235,748.5409)">
					<path id="path324" fill="#15495D" d="M-18.199-7.647c0,0.29-0.235,0.525-0.531,0.525c-0.29,0-0.525-0.235-0.525-0.525v-2.551
						c0-0.291,0.235-0.526,0.525-0.526c0.297,0,0.531,0.235,0.531,0.526V-7.647z"/>
				</g>
				<g id="g326" transform="translate(158.0192,744.2304)">
					<path id="path328" fill="#15495D" d="M-23.908-4.785c0,0.29-0.236,0.524-0.525,0.524c-0.29,0-0.525-0.235-0.525-0.524v-1.103
						c0-0.291,0.235-0.526,0.525-0.526c0.289,0,0.525,0.235,0.525,0.526V-4.785z"/>
				</g>
				<g id="g330" transform="translate(156.2126,719.9218)">
					<path id="path332" fill="#C4122E" d="M-22.708,11.359v-0.066h-0.187v-0.487h-0.077v0.487h-0.188v0.066H-22.708z"/>
				</g>
				<g id="g334" transform="translate(156.3297,719.9218)">
					<path id="path336" fill="#C4122E" d="M-22.786,11.359h0.121l0.166-0.454h0.003l0.16,0.454h0.118v-0.553h-0.079v0.453H-22.3
						l-0.168-0.453h-0.073l-0.164,0.453h-0.004v-0.453h-0.077V11.359z"/>
				</g>
			</g>
		</g>
	</g>
</g>
</svg>
