<?xml version="1.0" encoding="UTF-8"?>
<!-- Generator: Adobe Illustrator 16.2.1, SVG Export Plug-In . SVG Version: 6.00 Build 0)  -->
<!DOCTYPE svg PUBLIC "-//W3C//DTD SVG 1.1//EN" "http://www.w3.org/Graphics/SVG/1.1/DTD/svg11.dtd">
<svg version="1.1" id="Layer_1" xmlns="http://www.w3.org/2000/svg" xmlns:xlink="http://www.w3.org/1999/xlink" x="0px" y="0px" width="30px" height="30px" viewBox="0 0 30 30" enable-background="new 0 0 30 30" xml:space="preserve">
<path fill="#1988CC" d="M4.882,24.633c0.423,0.411,0.976,0.617,1.53,0.617c0.552,0,1.104-0.206,1.526-0.617l3.228-3.144  c1.49,0.982,3.286,1.557,5.219,1.557c5.164,0,9.365-4.104,9.365-9.148c0-5.044-4.201-9.147-9.365-9.147  c-5.166,0-9.365,4.103-9.365,9.147c0,1.631,0.444,3.16,1.212,4.486l-3.35,3.262C4.04,22.472,4.04,23.808,4.882,24.633z   M16.385,20.231c-3.575,0-6.484-2.843-6.484-6.333c0-3.491,2.909-6.333,6.484-6.333c3.576,0,6.484,2.842,6.484,6.333  C22.869,17.388,19.961,20.231,16.385,20.231z"/>
</svg>