<?xml version="1.0" encoding="UTF-8"?>
<!-- Generator: Adobe Illustrator 16.0.0, SVG Export Plug-In . SVG Version: 6.00 Build 0)  -->
<!DOCTYPE svg PUBLIC "-//W3C//DTD SVG 1.1//EN" "http://www.w3.org/Graphics/SVG/1.1/DTD/svg11.dtd">
<svg version="1.1" id="Layer_1" xmlns="http://www.w3.org/2000/svg" xmlns:xlink="http://www.w3.org/1999/xlink" x="0px" y="0px" width="18.676px" height="18.779px" viewBox="0 0 18.676 18.779" enable-background="new 0 0 18.676 18.779" xml:space="preserve">
<path d="M7.298,14.6C3.273,14.6,0,11.326,0,7.301C0,3.274,3.273,0,7.298,0s7.299,3.274,7.299,7.301  C14.597,11.326,11.323,14.6,7.298,14.6 M7.298,2.576c-2.604,0-4.722,2.119-4.722,4.725c0,2.604,2.117,4.723,4.722,4.723  c2.604,0,4.724-2.119,4.724-4.723C12.021,4.695,9.901,2.576,7.298,2.576"/>
<rect x="10.06" y="13.458" transform="matrix(-0.7228 -0.6911 0.6911 -0.7228 14.867 35.4576)" width="8.97" height="2.578"/>
</svg>