<?xml version="1.0" encoding="UTF-8"?>
<!-- Generator: Adobe Illustrator 18.1.1, SVG Export Plug-In . SVG Version: 6.00 Build 0)  -->
<svg version="1.1" id="Lager_1" xmlns="http://www.w3.org/2000/svg" xmlns:xlink="http://www.w3.org/1999/xlink" x="0px" y="0px" width="30px" height="30px" viewBox="0 0 30 30" enable-background="new 0 0 30 30" xml:space="preserve">
<circle fill="#0176A5" cx="15" cy="15" r="15"/>
<path fill="#FFFFFF" d="M24.2,17.8c0.3-0.9,0.4-1.8,0.4-2.8c0-5.3-4.3-9.6-9.6-9.6S5.4,9.7,5.4,15c0,5.3,4.3,9.6,9.6,9.6  c0.9,0,1.5-0.7,1.5-1.5s-0.7-1.5-1.5-1.5c-3.6,0-6.5-2.9-6.5-6.5c0-3.6,2.9-6.5,6.5-6.5c3.6,0,6.5,2.9,6.5,6.5c0,0.5-0.1,1-0.2,1.4  L18.5,15l2,6l6-2L24.2,17.8z"/>
</svg>