<?xml version="1.0" encoding="UTF-8"?>
<!-- Generator: Adobe Illustrator 16.0.0, SVG Export Plug-In . SVG Version: 6.00 Build 0)  -->
<!DOCTYPE svg PUBLIC "-//W3C//DTD SVG 1.1//EN" "http://www.w3.org/Graphics/SVG/1.1/DTD/svg11.dtd">
<svg version="1.1" id="Layer_1" xmlns="http://www.w3.org/2000/svg" xmlns:xlink="http://www.w3.org/1999/xlink" x="0px" y="0px" width="20.73px" height="20.73px" viewBox="0 0 20.73 20.73" enable-background="new 0 0 20.73 20.73" xml:space="preserve">
<g>
	<path fill="#3B6FC8" d="M4.76,10.42h2.19l-3.48,3.46L0,10.42h2.18v-0.05c0-5.12,4.15-9.28,9.27-9.28c5.13,0,9.28,4.16,9.28,9.28   s-4.15,9.27-9.28,9.27c-2.95,0-5.59-1.39-7.28-3.54l0.75-0.76l1.09-1.08c1.22,1.7,3.2,2.8,5.44,2.8c3.7,0,6.7-3,6.7-6.69   c0-3.7-3-6.7-6.7-6.7c-3.69,0-6.69,3-6.69,6.7V10.42L4.76,10.42z"/>
</g>
</svg>