<?xml version="1.0" encoding="UTF-8"?>
<!-- Generator: Adobe Illustrator 16.0.3, SVG Export Plug-In . SVG Version: 6.00 Build 0)  -->
<!DOCTYPE svg PUBLIC "-//W3C//DTD SVG 1.1 Tiny//EN" "http://www.w3.org/Graphics/SVG/1.1/DTD/svg11-tiny.dtd">
<svg version="1.1" baseProfile="tiny" id="Layer_1" xmlns="http://www.w3.org/2000/svg" xmlns:xlink="http://www.w3.org/1999/xlink" x="0px" y="0px" width="42px" height="42px" viewBox="0 0 42 42" xml:space="preserve">
<g>
	<rect x="-61.544" y="-60.705" fill="#00AEEF" width="0" height="0"/>
	<polygon fill-rule="evenodd" fill="#FFFFFF" points="-61.544,-60.705 -61.544,-60.705 -61.544,-60.705 -61.544,-60.705    -61.544,-60.705 -61.544,-60.705 -61.544,-60.705 -61.544,-60.705 -61.544,-60.705 -61.544,-60.705 -61.544,-60.705    -61.544,-60.705 -61.544,-60.705 -61.544,-60.705 -61.544,-60.705 -61.544,-60.705 -61.544,-60.705 -61.544,-60.705    -61.544,-60.705 -61.544,-60.705 -61.544,-60.705 -61.544,-60.705  "/>
</g>
<g>
	<circle fill="#00AEEF" cx="21" cy="21" r="19"/>
	<path fill-rule="evenodd" fill="#FFFFFF" d="M7.901,30.156c2.966,0.168,5.491-0.513,7.885-2.357   c-2.457-0.276-4.106-1.383-5.044-3.608c0.75-0.061,1.42-0.114,2.09-0.168c-2.399-1.036-3.884-2.64-4.054-5.361   c0.767,0.197,1.45,0.372,2.134,0.547c0.037-0.056,0.074-0.111,0.11-0.167c-0.973-0.919-1.812-1.911-2.077-3.265   c-0.26-1.324-0.141-2.578,0.546-3.861c2.998,3.415,6.674,5.36,11.183,5.661c0.063-0.871,0.021-1.708,0.197-2.494   c0.88-3.903,5.442-5.553,8.573-3.076c0.638,0.503,1.159,0.561,1.833,0.289c0.693-0.28,1.392-0.549,2.162-0.852   c-0.332,1.153-1.126,1.911-1.973,2.631c0.025,0.062,0.055,0.122,0.081,0.183c0.817-0.202,1.634-0.402,2.45-0.604   c0.035,0.04,0.068,0.078,0.102,0.117c-0.584,0.606-1.117,1.277-1.771,1.798c-0.568,0.454-0.75,0.934-0.781,1.649   c-0.271,5.93-2.831,10.601-8.096,13.437c-4.931,2.655-10.006,2.467-14.976-0.133C8.332,30.447,8.199,30.346,7.901,30.156z"/>
</g>
</svg>