<?xml version="1.0" encoding="UTF-8"?>
<!-- Generator: Adobe Illustrator 16.0.0, SVG Export Plug-In . SVG Version: 6.00 Build 0)  -->
<!DOCTYPE svg PUBLIC "-//W3C//DTD SVG 1.1//EN" "http://www.w3.org/Graphics/SVG/1.1/DTD/svg11.dtd">
<svg version="1.1" id="Layer_1" xmlns="http://www.w3.org/2000/svg" xmlns:xlink="http://www.w3.org/1999/xlink" x="0px" y="0px" width="50px" height="50px" viewBox="0 0 50 50" enable-background="new 0 0 50 50" xml:space="preserve">
<g id="Layer_1_1_" display="none">
	<path display="inline" fill="#4C9AAC" d="M37.572,45.826c6.334,0,8.289-4.146,8.289-8.485c0-4.341,0-20.998,0-25.691   c0-4.692-4.303-7.429-8.289-7.429H12.428c-6.335,0-8.29,4.145-8.29,8.485s0,20.999,0,25.69c0,4.688,4.301,7.43,8.29,7.43H37.572   L37.572,45.826z"/>
	
		<rect x="34.991" y="7.661" display="inline" fill="#FFFFFF" stroke="#FFFFFF" stroke-linecap="round" stroke-linejoin="round" stroke-miterlimit="10" width="6.686" height="6.686"/>
	<path display="inline" fill="#010101" stroke="#010101" stroke-linejoin="round" stroke-miterlimit="10" d="M35.498,25.525   c0,5.801-4.699,10.5-10.499,10.5c-5.797,0-10.499-4.699-10.499-10.5c0-5.796,4.702-10.5,10.499-10.5   C30.799,15.028,35.498,19.73,35.498,25.525z"/>
	
		<circle display="inline" fill="#FFFFFF" stroke="#010101" stroke-linejoin="round" stroke-miterlimit="10" cx="24.999" cy="25.022" r="6.653"/>
	
		<line display="inline" fill="none" stroke="#FFFFFF" stroke-width="8" stroke-linejoin="round" stroke-miterlimit="10" x1="4.139" y1="17.281" x2="45.861" y2="17.281"/>
	
		<line display="inline" fill="none" stroke="#FFFFFF" stroke-width="8" stroke-linejoin="round" stroke-miterlimit="10" x1="14.5" y1="3.086" x2="14.5" y2="11.004"/>
	
		<line display="inline" fill="none" stroke="#FFFFFF" stroke-width="8" stroke-linejoin="round" stroke-miterlimit="10" x1="11.725" y1="2.148" x2="11.725" y2="11.004"/>
	
		<line display="inline" fill="none" stroke="#FFFFFF" stroke-width="8" stroke-linejoin="round" stroke-miterlimit="10" x1="8.948" y1="3.79" x2="8.948" y2="11.004"/>
	<path display="inline" fill="#FFFFFF" stroke="#FFFFFF" stroke-linejoin="round" stroke-miterlimit="10" d="M35.498,25.511   c0,5.798-4.699,10.498-10.499,10.498c-5.797,0-10.499-4.7-10.499-10.498c0-5.8,4.702-10.5,10.499-10.5   C30.799,15.01,35.498,19.711,35.498,25.511z"/>
	
		<circle display="inline" fill="#4C9AAC" stroke="#4C9AAC" stroke-linejoin="round" stroke-miterlimit="10" cx="24.999" cy="25.509" r="6.669"/>
</g>
<g id="Layer_2" display="none">
	<circle display="inline" fill="#4C9AAC" cx="24.826" cy="25.023" r="20.858"/>
	<path display="inline" fill="#FFFFFF" stroke="#4C9AAC" stroke-miterlimit="10" d="M30.152,24.792h-3.764V37.68h-5.528V24.792   H19.02v-5.524h1.841v-2.075c0-2.142,0.864-5.485,5.334-5.485l3.871,0.015v3.863h-2.434c-0.479,0-1.248,0.86-1.248,1.882v1.8h4.238   L30.152,24.792z"/>
</g>
<g id="XMLID_1_">
	<g>
		<path d="M40.29,13.89c-0.229,0.09-3.931,1.69-5.38,1.78c0,0-2.46-2.32-6.2-0.8c-3.74,1.51-3.74,5.27-3.58,6.68    c0,0-6.32,0.41-11.88-6.09c0,0-2.6,4.22,1.66,7.67c0,0-0.53,0.37-2.47-0.57c0,0-0.32,4.27,4.42,5.68c0,0-0.49,0.49-2.35,0.199    c0,0,0.85,3.619,5.23,4.021c0,0-3.24,3.05-8.4,2.399c0,0,5.72,4.17,13.07,2.109c7.34-2.068,9.939-7.26,10.46-8.439    c0.53-1.18,2.021-3.339,1.7-7.199c0,0,3.438-2.94,3.729-3.72c0,0-2.79,0.34-4.13,0.43C36.17,18.04,39.471,16.17,40.29,13.89z     M25,1.05c13.23,0,23.95,10.72,23.95,23.95c0,13.23-10.72,23.95-23.95,23.95C11.77,48.95,1.05,38.23,1.05,25    C1.05,11.77,11.77,1.05,25,1.05z"/>
	</g>
</g>
</svg>