<?xml version="1.0" encoding="UTF-8"?>
<!-- Generator: Adobe Illustrator 15.1.0, SVG Export Plug-In . SVG Version: 6.00 Build 0)  -->
<!DOCTYPE svg PUBLIC "-//W3C//DTD SVG 1.1//EN" "http://www.w3.org/Graphics/SVG/1.1/DTD/svg11.dtd">
<svg version="1.1" id="Layer_1" xmlns="http://www.w3.org/2000/svg" xmlns:xlink="http://www.w3.org/1999/xlink" x="0px" y="0px" width="67.466px" height="59.797px" viewBox="13.49 1 67.466 59.797" enable-background="new 13.49 1 67.466 59.797" xml:space="preserve">
<g>
	
		<radialGradient id="SVGID_1_" cx="362.8257" cy="-745.4072" r="30.8697" gradientTransform="matrix(0.9732 0 0 -0.9795 -305.3096 -695.0044)" gradientUnits="userSpaceOnUse">
		<stop offset="0.25" style="stop-color:#FFFFFF"/>
		<stop offset="1" style="stop-color:#000000"/>
	</radialGradient>
	<path opacity="0.2" fill="url(#SVGID_1_)" enable-background="new    " d="M32.972,28.729c-1.092,0.026-2.244,0.142-3.425,0.336   c-1.239,0.206-2.553,0.51-3.903,0.901c-1.408,0.408-2.905,0.932-4.445,1.551l-0.011,0.002c-0.052,0.021-0.089,0.064-0.107,0.122   l-6.138,20.796c-0.034,0.109,0.027,0.225,0.097,0.281l0.411,0.307c0,0,0.007,0.004,0.013,0.012   c0.099,0.063,0.199,0.062,0.239,0.057c0.002,0,0.013-0.004,0.013-0.004c2.299-0.863,4.348-1.482,6.266-1.896   c1.869-0.4,3.552-0.592,5.146-0.584c1.333,0.01,2.586,0.146,3.833,0.417c1.125,0.247,2.219,0.599,3.343,1.078   c1.576,0.687,3.021,1.549,4.104,2.224l0.01,0.006v0.002c0.034,0.019,0.134,0.063,0.23,0.021c0,0,0.271-0.154,0.352-0.203l0,0   l0.028-0.02c0.055-0.037,0.13-0.088,0.152-0.182l0.004-0.021c0,0,0.002,0.003,0.003,0.005c0.012-0.039,6.109-20.252,6.109-20.252   l0.21-0.694c0.003-0.018,0.006-0.037,0.006-0.057c0-0.079-0.035-0.153-0.094-0.195c-0.002,0-0.007-0.001-0.007-0.001v-0.001   c-2.601-1.706-5.54-3.354-9.414-3.854C35.022,28.754,34.006,28.707,32.972,28.729z"/>
	
		<radialGradient id="SVGID_2_" cx="362.8267" cy="-745.4072" r="30.8676" gradientTransform="matrix(0.9732 0 0 -0.9795 -305.3096 -695.0044)" gradientUnits="userSpaceOnUse">
		<stop offset="0.25" style="stop-color:#FFFFFF"/>
		<stop offset="1" style="stop-color:#000000"/>
	</radialGradient>
	<path opacity="0.2" fill="url(#SVGID_2_)" enable-background="new    " d="M48.233,34.89L48.233,34.89   c-0.071,0.004-0.144,0.03-0.254,0.098c0,0.002-0.001,0.003-0.001,0.003h-0.003l-0.001,0.003c-0.028,0.021-0.099,0.066-0.18,0.13   c-0.165,0.125-0.266,0.227-0.294,0.295h-0.001l0,0c0,0.006-0.006,0.019-0.006,0.019l0.001-0.005l-0.001,0.007v0.002l-6.145,20.606   c-0.106,0.309,0.177,0.478,0.209,0.494c1.577,1.023,3.08,1.832,4.596,2.463c0.888,0.373,1.796,0.688,2.702,0.938   c0.981,0.274,1.989,0.488,3,0.63c1.084,0.149,2.202,0.227,3.323,0.225c1.192-0.006,2.427-0.101,3.668-0.277   c1.311-0.189,2.669-0.48,4.037-0.866c1.438-0.403,2.926-0.924,4.428-1.546c0.002,0,0.009-0.005,0.009-0.005   c0.042-0.026,0.142-0.087,0.192-0.188c0-0.002,6.001-20.271,6.003-20.276l-0.002-0.005v-0.002c0.008-0.028,0.009-0.061,0.009-0.088   c0-0.166-0.107-0.268-0.108-0.27c0,0.002-0.503-0.387-0.503-0.387l0,0l-0.001-0.004c-0.033-0.035-0.121-0.09-0.336-0.061   c-1.54,0.506-3.026,0.924-4.424,1.251c-1.348,0.313-2.654,0.55-3.885,0.699c-2.321,0.284-4.421,0.284-6.418,0   c-1.759-0.25-3.422-0.724-5.084-1.442c-1.343-0.582-2.711-1.337-4.305-2.377l-0.005-0.003h0.002   C48.355,34.907,48.293,34.89,48.233,34.89z"/>
	
		<radialGradient id="SVGID_3_" cx="362.8276" cy="-745.4067" r="30.8682" gradientTransform="matrix(0.9732 0 0 -0.9795 -305.3096 -695.0044)" gradientUnits="userSpaceOnUse">
		<stop offset="0.25" style="stop-color:#FFFFFF"/>
		<stop offset="1" style="stop-color:#000000"/>
	</radialGradient>
	<path opacity="0.2" fill="url(#SVGID_3_)" enable-background="new    " d="M55.254,9.793c-0.001,0-0.105,0.073-0.105,0.073   c-0.211,0.153-0.337,0.271-0.372,0.352l-0.001,0.002c0,0,0,0.001-0.001,0.001c0,0.003-0.021,0.07-0.021,0.07   c0,0.004-6.165,20.654-6.165,20.654c-0.017,0.051-0.024,0.098-0.024,0.137c0,0.227,0.209,0.342,0.213,0.344l0,0h0.001   c0.489,0.315,0.993,0.621,1.5,0.902c2.366,1.43,4.704,2.379,7.148,2.899c1.416,0.307,2.888,0.468,4.376,0.479   c1.608,0.018,3.292-0.142,5-0.465c2.535-0.389,5.111-1.154,7.653-2.268c0-0.002,0.007-0.004,0.007-0.004   c0.048-0.023,0.152-0.092,0.206-0.19c0-0.005,6.269-20.843,6.269-20.843c0.012-0.038,0.018-0.072,0.018-0.107   c0-0.179-0.157-0.329-0.309-0.459c-0.084-0.078-0.2-0.177-0.281-0.211c-0.17-0.078-0.344-0.053-0.396-0.022   c-0.001,0-0.004,0.004-0.004,0.004l-0.001,0.001c-1.535,0.613-3.026,1.127-4.433,1.531c-1.346,0.385-2.658,0.679-3.898,0.874   c-1.18,0.186-2.334,0.287-3.432,0.303c-1.034,0.014-2.054-0.046-3.03-0.183c-1.752-0.246-3.43-0.734-5.124-1.493   c-1.683-0.753-3.192-1.692-4.32-2.426C55.535,9.666,55.45,9.671,55.254,9.793z"/>
	
		<radialGradient id="SVGID_4_" cx="362.8257" cy="-745.4082" r="30.8717" gradientTransform="matrix(0.9732 0 0 -0.9795 -305.3096 -695.0044)" gradientUnits="userSpaceOnUse">
		<stop offset="0.25" style="stop-color:#FFFFFF"/>
		<stop offset="1" style="stop-color:#000000"/>
	</radialGradient>
	<path opacity="0.2" fill="url(#SVGID_4_)" enable-background="new    " d="M35.3,4.016c-2.127,0.446-4.451,1.172-6.906,2.155l0,0   c-0.022,0.009-0.091,0.035-0.114,0.124l-0.319,1.063l-5.911,19.8c-0.007,0.021-0.009,0.046-0.009,0.07   c0,0.096,0.043,0.215,0.091,0.25c0.009,0.007,0.021,0.012,0.028,0.016l0.001,0.003l0.041,0.029l0.364,0.275l0.011,0.007   c0.012,0.009,0.025,0.018,0.033,0.022c0.075,0.029,0.094,0.029,0.113,0.027h0.007l0,0c0-0.002,0.003-0.002,0.003-0.002l0,0v-0.001   l0.011-0.003c0.054-0.004,0.18-0.059,0.181-0.061c5.384-2.067,9.69-2.82,13.551-2.361c1.647,0.195,3.24,0.617,4.872,1.287   c1.299,0.535,2.641,1.233,4.217,2.201l0.022,0.01h0.005l0.019,0.011h0.001h0.002l0.005,0.003l0.006,0.004h-0.002   c0.001,0,0.125,0.061,0.228,0.033c0-0.001,0.388-0.17,0.388-0.17l0,0l0,0l0.018-0.012c0.051-0.037,0.131-0.092,0.154-0.19l0,0l0,0   l0,0l3.888-13.001l2.089-6.986l0.14-0.461c0-0.001,0.001-0.01,0.001-0.01L52.63,7.81c0.003-0.01,0.004-0.022,0.006-0.035   c0-0.009,0-0.018,0-0.028c0-0.079-0.033-0.146-0.091-0.185c-1.235-0.81-2.215-1.395-3.178-1.893l-0.065-0.033   c-2.779-1.434-5.454-2.13-8.417-2.19C39.149,3.411,37.269,3.601,35.3,4.016z"/>
</g>
<g>
	<g>
		<g>
			<g>
				
					<radialGradient id="SVGID_5_" cx="328.8677" cy="-708.8779" r="33.0584" gradientTransform="matrix(1 0 0 -1 -283.4199 -678.6748)" gradientUnits="userSpaceOnUse">
					<stop offset="0.0011" style="stop-color:#D1E7EE"/>
					<stop offset="0.0979" style="stop-color:#CDE4EC"/>
					<stop offset="0.203" style="stop-color:#C0DCE8"/>
					<stop offset="0.2985" style="stop-color:#ADD0E1"/>
					<stop offset="0.6504" style="stop-color:#3982B1"/>
					<stop offset="0.7203" style="stop-color:#3474AA"/>
					<stop offset="0.899" style="stop-color:#285699"/>
					<stop offset="1" style="stop-color:#244B93"/>
				</radialGradient>
				<path fill="url(#SVGID_5_)" d="M19.754,29.352c12.532-5.162,18.598-2.408,24.03,1.279L37.51,52.194      c-5.452-3.666-11.38-6.687-23.962-1.481l6.132-21.33L19.754,29.352z"/>
			</g>
		</g>
	</g>
	
		<radialGradient id="SVGID_6_" cx="328.8481" cy="-708.5527" r="33.3079" gradientTransform="matrix(1 0 0 -1 -283.4199 -678.6748)" gradientUnits="userSpaceOnUse">
		<stop offset="0.0036" style="stop-color:#D8EEED"/>
		<stop offset="0.1733" style="stop-color:#98D8D7"/>
		<stop offset="0.2237" style="stop-color:#8ED3D3"/>
		<stop offset="0.3088" style="stop-color:#74C6CA"/>
		<stop offset="0.4176" style="stop-color:#49B1BA"/>
		<stop offset="0.4477" style="stop-color:#3CAAB5"/>
		<stop offset="0.56" style="stop-color:#2E81A4"/>
		<stop offset="0.6836" style="stop-color:#215B94"/>
		<stop offset="0.783" style="stop-color:#19448B"/>
		<stop offset="0.8448" style="stop-color:#163B87"/>
		<stop offset="1" style="stop-color:#0B317D"/>
	</radialGradient>
	<path fill="url(#SVGID_6_)" d="M14.01,51.344c0.041,0.007,0.113-0.032,0.113-0.032c0.09,0.063,0.162,0.104,0.162,0.104   S14.143,51.448,14.01,51.344z"/>
	<path fill="#152469" d="M37.292,52.438c0,0,0.082,0.079,0.18,0.056l-0.375,0.224c-0.12,0.055-0.247-0.032-0.247-0.032   L37.292,52.438z"/>
	
		<radialGradient id="SVGID_7_" cx="328.8452" cy="-708.8154" r="33.178" gradientTransform="matrix(1 0 0 -1 -283.4199 -678.6748)" gradientUnits="userSpaceOnUse">
		<stop offset="0.0036" style="stop-color:#D8EEED"/>
		<stop offset="0.1733" style="stop-color:#98D8D7"/>
		<stop offset="0.2237" style="stop-color:#8ED3D3"/>
		<stop offset="0.3088" style="stop-color:#74C6CA"/>
		<stop offset="0.4176" style="stop-color:#49B1BA"/>
		<stop offset="0.4477" style="stop-color:#3CAAB5"/>
		<stop offset="0.56" style="stop-color:#2E81A4"/>
		<stop offset="0.6836" style="stop-color:#215B94"/>
		<stop offset="0.783" style="stop-color:#19448B"/>
		<stop offset="0.8448" style="stop-color:#163B87"/>
		<stop offset="1" style="stop-color:#152469"/>
	</radialGradient>
	<path fill="url(#SVGID_7_)" d="M14.131,51.314c0,0-0.075,0.042-0.116,0.036l-0.414-0.318l-0.007-0.008   c0.06,0.017,0.126,0.008,0.151,0.004L14.131,51.314z"/>
	<path fill="#152469" d="M37.505,52.138c0.042,0.024,0.086,0.063,0.127,0.147c-0.022,0.114-0.112,0.17-0.171,0.209   c-0.076,0.016-0.183-0.052-0.183-0.052C37.34,52.393,37.44,52.319,37.505,52.138z"/>
	<path fill="#172E65" d="M13.601,51.032c-0.08-0.067-0.134-0.188-0.101-0.295l0.073-0.032c-0.029,0.161,0.083,0.273,0.169,0.327   C13.743,51.032,13.683,51.059,13.601,51.032z"/>
	
		<radialGradient id="SVGID_8_" cx="328.8706" cy="-708.7896" r="33.1926" gradientTransform="matrix(1 0 0 -1 -283.4199 -678.6748)" gradientUnits="userSpaceOnUse">
		<stop offset="0.0036" style="stop-color:#D8EEED"/>
		<stop offset="0.1733" style="stop-color:#98D8D7"/>
		<stop offset="0.2237" style="stop-color:#8ED3D3"/>
		<stop offset="0.3088" style="stop-color:#74C6CA"/>
		<stop offset="0.4176" style="stop-color:#49B1BA"/>
		<stop offset="0.4477" style="stop-color:#3CAAB5"/>
		<stop offset="0.56" style="stop-color:#2E81A4"/>
		<stop offset="0.6836" style="stop-color:#215B94"/>
		<stop offset="0.783" style="stop-color:#19448B"/>
		<stop offset="0.8448" style="stop-color:#163B87"/>
		<stop offset="1" style="stop-color:#0B317D"/>
	</radialGradient>
	<path fill="url(#SVGID_8_)" d="M14.105,51.295c11.97-4.676,17.33-2.127,22.784,1.377c-3.266-2.104-6.622-3.774-11.257-3.81   c-3.104-0.017-6.77,0.769-11.359,2.552C14.273,51.416,14.182,51.377,14.105,51.295z"/>
	<g>
		<path fill="#094B8F" d="M37.289,52.455c-5.453-3.671-11.102-6.47-23.537-1.416c-0.083-0.053-0.216-0.18-0.182-0.334    c12.622-5.371,18.489-2.234,23.941,1.434C37.454,52.336,37.351,52.406,37.289,52.455z"/>
		<path fill="#094B8F" d="M37.297,52.455l-0.443,0.229c-5.449-3.504-10.966-5.932-22.723-1.368l-0.39-0.282    C26.179,45.979,31.841,48.784,37.297,52.455z"/>
	</g>
	
		<linearGradient id="SVGID_9_" gradientUnits="userSpaceOnUse" x1="327.0356" y1="-709.9136" x2="321.8648" y2="-728.1019" gradientTransform="matrix(1 0 0 -1 -283.4199 -678.6748)">
		<stop offset="0" style="stop-color:#98D8D7"/>
		<stop offset="1" style="stop-color:#152469"/>
	</linearGradient>
	<path fill="url(#SVGID_9_)" d="M37.502,52.144l6.282-21.515c0.069,0.045,0.106,0.082,0.142,0.121l-6.294,21.547   C37.596,52.2,37.502,52.144,37.502,52.144z"/>
	
		<radialGradient id="SVGID_10_" cx="328.8677" cy="-708.7773" r="33.1092" gradientTransform="matrix(1 0 0 -1 -283.4199 -678.6748)" gradientUnits="userSpaceOnUse">
		<stop offset="0.0036" style="stop-color:#D8EEED"/>
		<stop offset="0.1733" style="stop-color:#98D8D7"/>
		<stop offset="0.2237" style="stop-color:#8ED3D3"/>
		<stop offset="0.3088" style="stop-color:#74C6CA"/>
		<stop offset="0.4176" style="stop-color:#49B1BA"/>
		<stop offset="0.4477" style="stop-color:#3CAAB5"/>
		<stop offset="0.56" style="stop-color:#2E81A4"/>
		<stop offset="0.6836" style="stop-color:#215B94"/>
		<stop offset="0.783" style="stop-color:#19448B"/>
		<stop offset="0.8448" style="stop-color:#163B87"/>
		<stop offset="1" style="stop-color:#152469"/>
	</radialGradient>
	<path fill="url(#SVGID_10_)" d="M43.824,30.482l0.01,0.002c0.08,0.059,0.112,0.167,0.092,0.268l-0.004,0.014   c-0.036-0.037-0.072-0.077-0.14-0.123L43.824,30.482z"/>
	<polygon opacity="0.66" fill="#063367" enable-background="new    " points="19.608,29.362 19.681,29.379 13.573,50.705    13.5,50.738  "/>
	
		<linearGradient id="SVGID_11_" gradientUnits="userSpaceOnUse" x1="296.9106" y1="-719.063" x2="303.7749" y2="-719.063" gradientTransform="matrix(1 0 0 -1 -283.4199 -678.6748)">
		<stop offset="0" style="stop-color:#DEF3F1"/>
		<stop offset="1" style="stop-color:#5085BC"/>
	</linearGradient>
	<path opacity="0.42" fill="url(#SVGID_11_)" enable-background="new    " d="M19.608,29.362l-0.29,1.022L13.5,50.738   c-0.032,0.105,0.021,0.229,0.101,0.296l0.414,0.316c0,0,0.001-0.001,0.001,0c0.054,0.037,0.105,0.052,0.149,0.063l6.19-21.453   l-0.014-0.018l-0.66-0.562L19.608,29.362z M13.584,50.7v-0.004c0.03-0.01,0.059-0.021,0.086-0.03   C13.64,50.676,13.614,50.688,13.584,50.7z M13.742,51.032c-0.041-0.026-0.089-0.067-0.124-0.116   c0.036,0.049,0.084,0.09,0.124,0.112C13.743,51.028,13.743,51.028,13.742,51.032z"/>
	
		<linearGradient id="SVGID_12_" gradientUnits="userSpaceOnUse" x1="320.3618" y1="-720.3281" x2="327.3472" y2="-720.3281" gradientTransform="matrix(1 0 0 -1 -283.4199 -678.6748)">
		<stop offset="0" style="stop-color:#DEF3F1"/>
		<stop offset="1" style="stop-color:#5085BC"/>
	</linearGradient>
	<path opacity="0.42" fill="url(#SVGID_12_)" enable-background="new    " d="M43.901,30.575l-0.119,0.071l-0.521,0.513   c0.002,0,0.002,0,0.002,0.005c-0.847,2.894-5.601,19.127-6.321,21.557c0.045,0.014,0.1,0.018,0.153-0.004l0.375-0.226   c-0.001,0-0.003,0-0.004,0c0.056-0.041,0.14-0.095,0.165-0.202c0,0.006,0,0.006,0,0.008l6.086-20.83l0.208-0.715   c0.006-0.039,0-0.074-0.006-0.11C43.916,30.618,43.909,30.6,43.901,30.575z"/>
	
		<linearGradient id="SVGID_13_" gradientUnits="userSpaceOnUse" x1="303.1001" y1="-707.4365" x2="327.2534" y2="-707.4365" gradientTransform="matrix(1 0 0 -1 -283.4199 -678.6748)">
		<stop offset="0" style="stop-color:#094992"/>
		<stop offset="0.6685" style="stop-color:#8BCDE2"/>
		<stop offset="1" style="stop-color:#E6F6F9"/>
	</linearGradient>
	<path fill="url(#SVGID_13_)" d="M43.782,30.641l-0.521,0.521c-1.808-1.201-6.789-4.294-12.414-3.834   c-4.566,0.37-8.586,1.84-10.493,2.633l-0.674-0.578l0.048-0.149c12.585-5.206,18.653-2.438,24.1,1.251l-0.004,0.002h0.009   L43.782,30.641z"/>
	
		<linearGradient id="SVGID_14_" gradientUnits="userSpaceOnUse" x1="303.1489" y1="-707.9053" x2="303.1489" y2="-707.9053" gradientTransform="matrix(1 0 0 -1 -283.4199 -678.6748)">
		<stop offset="0" style="stop-color:#7E9EC4"/>
		<stop offset="1" style="stop-color:#151D89"/>
	</linearGradient>
	<path fill="url(#SVGID_14_)" d="M19.729,29.23"/>
	
		<linearGradient id="SVGID_15_" gradientUnits="userSpaceOnUse" x1="303.686" y1="-707.8511" x2="326.7778" y2="-707.8511" gradientTransform="matrix(1 0 0 -1 -283.4199 -678.6748)">
		<stop offset="0.0056" style="stop-color:#BBC7E1"/>
		<stop offset="0.2247" style="stop-color:#7090C3"/>
		<stop offset="0.5449" style="stop-color:#C8EAEF"/>
		<stop offset="1" style="stop-color:#FFFFFF"/>
	</linearGradient>
	<path opacity="0.33" fill="url(#SVGID_15_)" enable-background="new    " d="M20.266,29.881   c12.587-5.205,18.208-1.766,23.092,1.185l-0.096,0.097c-5.028-3.115-10.375-6.312-22.905-1.197L20.266,29.881z"/>
	
		<linearGradient id="SVGID_16_" gradientUnits="userSpaceOnUse" x1="303.1558" y1="-707.1484" x2="327.2534" y2="-707.1484" gradientTransform="matrix(1 0 0 -1 -283.4199 -678.6748)">
		<stop offset="0.0056" style="stop-color:#7090C3"/>
		<stop offset="0.5449" style="stop-color:#C1E7ED"/>
		<stop offset="1" style="stop-color:#FFFFFF"/>
	</linearGradient>
	<path opacity="0.33" fill="url(#SVGID_16_)" enable-background="new    " d="M19.736,29.213c12.585-5.205,18.4-2.53,24.098,1.271   l-0.049,0.146c-5.984-3.873-11.428-6.448-23.958-1.336L19.736,29.213z"/>
	
		<radialGradient id="SVGID_17_" cx="303.0825" cy="-707.9717" r="0.0815" gradientTransform="matrix(1 0 0 -1 -283.4199 -678.6748)" gradientUnits="userSpaceOnUse">
		<stop offset="0" style="stop-color:#7E9EC4"/>
		<stop offset="1" style="stop-color:#0A50A1"/>
	</radialGradient>
	<path fill="url(#SVGID_17_)" d="M19.681,29.379l-0.073-0.018c0.027-0.088,0.092-0.123,0.112-0.128l0.009-0.003   C19.729,29.23,19.717,29.274,19.681,29.379z"/>
	
		<radialGradient id="SVGID_18_" cx="287.1792" cy="-728.541" r="40.7766" gradientTransform="matrix(1 0 0 -1 -283.4199 -678.6748)" gradientUnits="userSpaceOnUse">
		<stop offset="0.0036" style="stop-color:#D8EEED"/>
		<stop offset="0.1733" style="stop-color:#98D8D7"/>
		<stop offset="0.2237" style="stop-color:#8ED3D3"/>
		<stop offset="0.3088" style="stop-color:#74C6CA"/>
		<stop offset="0.4176" style="stop-color:#49B1BA"/>
		<stop offset="0.4477" style="stop-color:#3CAAB5"/>
		<stop offset="0.4987" style="stop-color:#369FB5"/>
		<stop offset="0.6306" style="stop-color:#2A88B4"/>
		<stop offset="0.7129" style="stop-color:#257FB4"/>
		<stop offset="1" style="stop-color:#4161AB"/>
	</radialGradient>
	<path opacity="0.5" fill="url(#SVGID_18_)" enable-background="new    " d="M37.304,52.45c-5.452-3.666-11.102-6.466-23.536-1.416   c-0.083-0.05-0.217-0.175-0.184-0.331c12.624-5.373,18.49-2.232,23.942,1.432C37.47,52.334,37.367,52.4,37.304,52.45z"/>
</g>
<g>
	<g>
		
			<radialGradient id="SVGID_19_" cx="328.8394" cy="-709.6035" r="30.7772" gradientTransform="matrix(1 0 0 -1 -283.4199 -678.6748)" gradientUnits="userSpaceOnUse">
			<stop offset="0" style="stop-color:#FCF5B0"/>
			<stop offset="0.1657" style="stop-color:#F7EDA0"/>
			<stop offset="0.2849" style="stop-color:#F3E591"/>
			<stop offset="0.65" style="stop-color:#FCD118"/>
			<stop offset="0.8024" style="stop-color:#F7A50C"/>
			<stop offset="0.9288" style="stop-color:#F38603"/>
			<stop offset="1" style="stop-color:#F27B00"/>
		</radialGradient>
		<path fill="url(#SVGID_19_)" d="M47.071,32.715c5.448,3.666,11.02,6.354,23.825,1.977l-5.977,20.791    c-12.568,5.198-18.603,2.255-24.045-1.436L47.071,32.715z"/>
	</g>
	
		<linearGradient id="SVGID_20_" gradientUnits="userSpaceOnUse" x1="349.2817" y1="-734.6318" x2="349.1537" y2="-735.1095" gradientTransform="matrix(1 0 0 -1 -283.4199 -678.6748)">
		<stop offset="0" style="stop-color:#DE980D"/>
		<stop offset="1" style="stop-color:#A85D10"/>
	</linearGradient>
	<path fill="url(#SVGID_20_)" d="M65.98,56.219c-0.056,0.115-0.168,0.183-0.204,0.203c-0.01,0-0.017,0.004-0.017,0.004   s-0.104,0.012-0.197-0.061c0.247-0.136,0.317-0.404,0.317-0.404S66.023,56.084,65.98,56.219z"/>
	
		<linearGradient id="SVGID_21_" gradientUnits="userSpaceOnUse" x1="349.2886" y1="-724.397" x2="355.3726" y2="-724.397" gradientTransform="matrix(1 0 0 -1 -283.4199 -678.6748)">
		<stop offset="0" style="stop-color:#DEB150"/>
		<stop offset="1" style="stop-color:#FFF8B3"/>
	</linearGradient>
	<path fill="url(#SVGID_21_)" d="M65.98,56.219c0.022-0.116-0.111-0.227-0.111-0.227l5.959-20.767c0,0,0.096,0.085,0.125,0.151   L65.98,56.219z"/>
	
		<linearGradient id="SVGID_22_" gradientUnits="userSpaceOnUse" x1="355.314" y1="-713.6685" x2="355.314" y2="-714.064" gradientTransform="matrix(1 0 0 -1 -283.4199 -678.6748)">
		<stop offset="0.0056" style="stop-color:#C67C0C"/>
		<stop offset="1" style="stop-color:#DE980D"/>
	</linearGradient>
	<path fill="url(#SVGID_22_)" d="M71.951,35.388c0,0-0.018-0.063-0.125-0.148c0.048-0.2,0.012-0.246,0.012-0.246l0.015,0.011   C71.853,35.002,72.006,35.146,71.951,35.388z"/>
	
		<linearGradient id="SVGID_23_" gradientUnits="userSpaceOnUse" x1="354.4409" y1="-713.2012" x2="354.6889" y2="-713.6139" gradientTransform="matrix(1 0 0 -1 -283.4199 -678.6748)">
		<stop offset="0.0056" style="stop-color:#FED40F"/>
		<stop offset="1" style="stop-color:#A85D10"/>
	</linearGradient>
	<path fill="url(#SVGID_23_)" d="M71.356,34.885c0,0-0.162-0.197-0.499-0.141c0.017-0.074,0.045-0.166,0.153-0.209   c0.202-0.031,0.298,0.021,0.342,0.065c0.025,0.022,0.032,0.042,0.032,0.042C71.413,34.76,71.356,34.885,71.356,34.885z"/>
	
		<linearGradient id="SVGID_24_" gradientUnits="userSpaceOnUse" x1="355.0874" y1="-713.5186" x2="354.9346" y2="-713.7006" gradientTransform="matrix(1 0 0 -1 -283.4199 -678.6748)">
		<stop offset="0.0056" style="stop-color:#FED40F"/>
		<stop offset="1" style="stop-color:#A85D10"/>
	</linearGradient>
	<path fill="url(#SVGID_24_)" d="M71.352,34.603L71.853,35c0.025,0.133-0.027,0.27-0.027,0.27l-0.493-0.396   C71.333,34.875,71.381,34.722,71.352,34.603z"/>
	<polygon opacity="0.66" fill="#B37E00" enable-background="new    " points="65.336,55.615 71.329,34.838 71.832,35.243    65.883,56.013 65.857,56.065  "/>
	
		<linearGradient id="SVGID_25_" gradientUnits="userSpaceOnUse" x1="330.4312" y1="-713.4897" x2="354.4312" y2="-713.4897" gradientTransform="matrix(1 0 0 -1 -283.4199 -678.6748)">
		<stop offset="0" style="stop-color:#FFF8FB"/>
		<stop offset="1" style="stop-color:#FEC236"/>
	</linearGradient>
	<path fill="url(#SVGID_25_)" d="M70.878,34.767c-12.621,4.304-18.399,1.746-23.845-1.925c0.011-0.041,0.036-0.135-0.022-0.229   c5.447,3.668,11.472,6.167,24,1.926C70.913,34.603,70.903,34.691,70.878,34.767z"/>
	<polygon fill="#D9A200" points="46.056,33.1 46.475,32.815 40.407,53.969 39.934,54.344 39.934,54.295  "/>
	
		<linearGradient id="SVGID_26_" gradientUnits="userSpaceOnUse" x1="351.8013" y1="-723.9033" x2="351.2654" y2="-723.7498" gradientTransform="matrix(1 0 0 -1 -283.4199 -678.6748)">
		<stop offset="0" style="stop-color:#B37E00"/>
		<stop offset="1" style="stop-color:#FF9E00"/>
	</linearGradient>
	<path opacity="0.66" fill="url(#SVGID_26_)" enable-background="new    " d="M64.857,55.5l6-20.761c0.01,0,0.021-0.018,0.036-0.021   c0.313-0.028,0.463,0.135,0.463,0.135l-5.978,20.732C65.378,55.586,65.127,55.388,64.857,55.5z"/>
	<path fill="#A85D10" d="M65.777,56.422c-12.325,5.268-20.228,2.025-25.674-1.639l0.057-0.053   c5.442,3.666,13.828,6.721,25.401,1.609C65.655,56.42,65.777,56.422,65.777,56.422z"/>
	
		<linearGradient id="SVGID_27_" gradientUnits="userSpaceOnUse" x1="349.0093" y1="-734.3506" x2="348.7424" y2="-734.9501" gradientTransform="matrix(1 0 0 -1 -283.4199 -678.6748)">
		<stop offset="0.0056" style="stop-color:#FFD100"/>
		<stop offset="1" style="stop-color:#A8710A"/>
	</linearGradient>
	<path opacity="0.66" fill="url(#SVGID_27_)" enable-background="new    " d="M65.373,55.58l0.51,0.434c0,0-0.068,0.242-0.342,0.359   l-0.518-0.426C65.296,55.832,65.373,55.58,65.373,55.58z"/>
	
		<linearGradient id="SVGID_28_" gradientUnits="userSpaceOnUse" x1="324.0854" y1="-734.9375" x2="348.5464" y2="-734.9375" gradientTransform="matrix(1 0 0 -1 -283.4199 -678.6748)">
		<stop offset="0" style="stop-color:#DE980D"/>
		<stop offset="0.4" style="stop-color:#FDDA10"/>
		<stop offset="1" style="stop-color:#DE980D"/>
	</linearGradient>
	<path fill="url(#SVGID_28_)" d="M64.867,55.472c-0.048,0.319,0.259,0.519,0.259,0.519c-13.061,4.727-18.658,1.903-24.46-1.593   c0.093-0.074,0.145-0.129,0.201-0.354c0.011,0.004,0.085-0.008,0.098,0C46.575,57.498,53.058,60.358,64.867,55.472z"/>
	<path fill="#C67C0C" d="M40.162,54.758l0.504-0.361c4.991,3.109,11.981,6.516,24.389,1.535l0.51,0.431   C54.036,61.475,45.605,58.422,40.162,54.758z"/>
	<path fill="#DE980D" d="M40.205,54.774l-0.058,0.041c0,0-0.327-0.183-0.213-0.521C39.962,54.627,40.205,54.774,40.205,54.774z"/>
	
		<linearGradient id="SVGID_29_" gradientUnits="userSpaceOnUse" x1="323.9175" y1="-733.2554" x2="323.5241" y2="-732.8185" gradientTransform="matrix(1 0 0 -1 -283.4199 -678.6748)">
		<stop offset="0" style="stop-color:#DE980D"/>
		<stop offset="0.1" style="stop-color:#DE980D"/>
		<stop offset="0.7" style="stop-color:#FDDA10"/>
		<stop offset="1" style="stop-color:#DE980D"/>
	</linearGradient>
	<path fill="url(#SVGID_29_)" d="M39.934,54.295l0.473-0.389c-0.026,0.346,0.309,0.475,0.309,0.475l-0.519,0.397   C40.197,54.78,39.908,54.64,39.934,54.295z"/>
	
		<linearGradient id="SVGID_30_" gradientUnits="userSpaceOnUse" x1="323.9272" y1="-732.5215" x2="324.2047" y2="-733.022" gradientTransform="matrix(1 0 0 -1 -283.4199 -678.6748)">
		<stop offset="0" style="stop-color:#DE980D"/>
		<stop offset="0.4" style="stop-color:#FEBF0F"/>
		<stop offset="0.8" style="stop-color:#FED40F"/>
		<stop offset="1" style="stop-color:#DE980D"/>
	</linearGradient>
	<path fill="url(#SVGID_30_)" d="M40.373,53.922c0.169-0.064,0.325,0.012,0.505,0.115c-0.06,0.223-0.102,0.301-0.194,0.365   C40.569,54.338,40.345,54.207,40.373,53.922z"/>
	<path fill="#DE980D" d="M46.557,32.638l-0.092,0.18l-0.421,0.304c0.03-0.143,0.376-0.393,0.483-0.466   C46.542,32.644,46.557,32.638,46.557,32.638z"/>
	
		<radialGradient id="SVGID_31_" cx="330.1196" cy="-711.2246" r="0.3017" gradientTransform="matrix(1 0 0 -1 -283.4199 -678.6748)" gradientUnits="userSpaceOnUse">
		<stop offset="0" style="stop-color:#FEEB71"/>
		<stop offset="1" style="stop-color:#DE980D"/>
	</radialGradient>
	<path fill="url(#SVGID_31_)" d="M47.028,32.838c-0.25-0.142-0.474-0.067-0.563-0.021c0.015-0.047,0.067-0.167,0.067-0.167   c0.203-0.127,0.293-0.127,0.479-0.037C47.064,32.707,47.043,32.787,47.028,32.838z"/>
	
		<linearGradient id="SVGID_32_" gradientUnits="userSpaceOnUse" x1="327.4058" y1="-722.1455" x2="326.8425" y2="-721.9841" gradientTransform="matrix(1 0 0 -1 -283.4199 -678.6748)">
		<stop offset="0.0056" style="stop-color:#FFEFBB"/>
		<stop offset="1" style="stop-color:#FFBF00"/>
	</linearGradient>
	<path fill="url(#SVGID_32_)" d="M40.924,54.073c-0.179-0.104-0.383-0.184-0.556-0.114l6.106-21.144   c0.094-0.044,0.31-0.12,0.559,0.026L40.924,54.073z"/>
	
		<linearGradient id="SVGID_33_" gradientUnits="userSpaceOnUse" x1="329.2544" y1="-713.75" x2="355.3271" y2="-713.75" gradientTransform="matrix(1 0 0 -1 -283.4199 -678.6748)">
		<stop offset="0.0056" style="stop-color:#FCA859"/>
		<stop offset="0.2135" style="stop-color:#FDC30F"/>
		<stop offset="1" style="stop-color:#B51C00"/>
	</linearGradient>
	<path opacity="0.33" fill="url(#SVGID_33_)" enable-background="new    " d="M46.162,32.959c1.864,1.616,9.958,8.233,25.691,2.043   l-0.501-0.398c-0.043-0.046-0.139-0.098-0.341-0.064c-12.528,4.242-18.553,1.743-24-1.925c0,0.005,0,0.005,0,0.005   c-0.183-0.093-0.274-0.093-0.475,0.037C46.284,32.83,46.284,32.828,46.162,32.959z"/>
	
		<linearGradient id="SVGID_34_" gradientUnits="userSpaceOnUse" x1="329.4683" y1="-714.0908" x2="355.3765" y2="-714.0908" gradientTransform="matrix(1 0 0 -1 -283.4199 -678.6748)">
		<stop offset="0.0056" style="stop-color:#FFF6D8"/>
		<stop offset="0.525" style="stop-color:#FDDA10"/>
		<stop offset="1" style="stop-color:#F9BD0C"/>
	</linearGradient>
	<path opacity="0.33" fill="url(#SVGID_34_)" enable-background="new    " d="M71.853,35.002L71.853,35.002   c-15.733,6.19-23.828-0.427-25.691-2.043c-0.049,0.045-0.087,0.096-0.105,0.137v0.005l-0.006,0.016   c0,0.001-0.002,0.005-0.002,0.005h0.002l-0.003,0.01c1.625,1.423,9.755,8.509,25.908,2.102   C71.938,35.088,71.853,35.002,71.853,35.002z"/>
	
		<linearGradient id="SVGID_35_" gradientUnits="userSpaceOnUse" x1="348.5854" y1="-734.3911" x2="348.2244" y2="-734.079" gradientTransform="matrix(1 0 0 -1 -283.4199 -678.6748)">
		<stop offset="0" style="stop-color:#EAB949"/>
		<stop offset="0.0722" style="stop-color:#EDC25A"/>
		<stop offset="0.2779" style="stop-color:#F3D883"/>
		<stop offset="0.4784" style="stop-color:#F8E9A4"/>
		<stop offset="0.6698" style="stop-color:#FCF5BC"/>
		<stop offset="0.8479" style="stop-color:#FEFCCA"/>
		<stop offset="1" style="stop-color:#FFFFCF"/>
	</linearGradient>
	<path fill="url(#SVGID_35_)" d="M65.056,55.934c0,0-0.232-0.143-0.188-0.462c0.318-0.087,0.513,0.114,0.513,0.114   S65.33,55.815,65.056,55.934z"/>
</g>
<g>
	
		<radialGradient id="SVGID_36_" cx="327.9019" cy="-705.3711" r="29.2132" gradientTransform="matrix(1 0 0 -1 -283.4199 -678.6748)" gradientUnits="userSpaceOnUse">
		<stop offset="0.0036" style="stop-color:#EFD916"/>
		<stop offset="0.1053" style="stop-color:#EFD516"/>
		<stop offset="0.216" style="stop-color:#EDC715"/>
		<stop offset="0.3308" style="stop-color:#EBB213"/>
		<stop offset="0.4485" style="stop-color:#E89312"/>
		<stop offset="0.5673" style="stop-color:#E36D0F"/>
		<stop offset="0.65" style="stop-color:#E04D0D"/>
		<stop offset="0.7851" style="stop-color:#CE2907"/>
		<stop offset="0.9224" style="stop-color:#BF0B02"/>
		<stop offset="1" style="stop-color:#B90000"/>
	</radialGradient>
	<path fill="url(#SVGID_36_)" d="M44.829,26.746c-3.279-2.209-6.808-4.275-11.821-4.312c-3.306-0.026-7.244,0.915-12.243,2.979   L26.958,3.95c12.574-5.2,18.616-2.252,24.063,1.432L44.829,26.746z"/>
	<path fill="#BC1B00" d="M44.822,26.738l6.197-21.355c0.068,0.043,0.096,0.079,0.13,0.121l-6.193,21.386   C44.921,26.799,44.822,26.738,44.822,26.738z"/>
	<path fill="#BC1B00" d="M21.36,26.037c1.984-0.814,3.817-1.416,5.52-1.832c0.415-0.103,0.782-0.188,1.22-0.272   c0.4-0.082,0.797-0.159,1.183-0.218c0.605-0.088,1.194-0.166,1.772-0.213c0.488-0.039,0.965-0.065,1.432-0.069   c0.451-0.005,0.896,0,1.328,0.022c0.382,0.021,0.757,0.053,1.128,0.096c0.313,0.035,0.618,0.076,0.922,0.127   c0.637,0.109,1.255,0.244,1.851,0.412c2.41,0.683,4.55,1.845,6.518,3.153c-0.016,0.009-0.063-0.014-0.081-0.022   c-0.019-0.01-0.028-0.01-0.047-0.021c-2.659-1.686-5.513-3.155-9.04-3.589c-3.605-0.439-7.815,0.182-13.481,2.426   c0,0-0.127,0.059-0.181,0.064C21.36,26.114,21.37,26.08,21.36,26.037z"/>
	<path fill="#BC1B00" d="M44.609,27.051c0,0,0.081,0.059,0.176,0.037l-0.388,0.177c-0.106,0.026-0.232-0.036-0.232-0.036   L44.609,27.051z"/>
	<path fill="#B81A00" d="M21.362,26.039c0,0,0.026,0.043,0.042,0.068c-0.034,0.005-0.043,0.016-0.136-0.027   c-0.014-0.005-0.03-0.02-0.047-0.033l-0.403-0.313l-0.038-0.03c0.054-0.002,0.094,0.021,0.122,0.019L21.362,26.039z"/>
	<path fill="#E82E00" d="M44.829,26.743c0.042,0.026,0.094,0.044,0.131,0.132c-0.027,0.116-0.123,0.176-0.176,0.215   c-0.097,0.025-0.189-0.045-0.189-0.045C44.656,27,44.766,26.92,44.829,26.743z"/>
	<path fill="#F83603" d="M51.056,5.236l0.007,0.002c0.08,0.056,0.109,0.16,0.085,0.264l-0.005,0.009   c-0.032-0.038-0.056-0.078-0.125-0.13L51.056,5.236z"/>
	<path fill="#E32E00" d="M20.788,25.715c-0.061-0.045-0.118-0.228-0.084-0.336l0.08-0.023c-0.032,0.154,0.063,0.335,0.149,0.385   C20.934,25.74,20.874,25.775,20.788,25.715z"/>
	<g>
		<g>
			
				<linearGradient id="SVGID_38_" gradientUnits="userSpaceOnUse" x1="310.3218" y1="-682.5557" x2="310.4424" y2="-682.5557" gradientTransform="matrix(1 0 0 -1 -283.4199 -678.6748)">
				<stop offset="0" style="stop-color:#FD7E36"/>
				<stop offset="1" style="stop-color:#BD6F4F"/>
			</linearGradient>
			<path id="SVGID_37_" fill="url(#SVGID_38_)" d="M26.96,3.955l-0.059-0.015c0.024-0.095,0.089-0.124,0.113-0.131l0.008-0.002     C27.022,3.806,26.993,3.851,26.96,3.955z"/>
		</g>
	</g>
	<g>
		<path fill="#E82E00" d="M44.621,27.057c-5.861-4.066-13.039-6.618-23.7-1.321l0.436,0.31c11.651-4.761,17.723-2.188,22.837,1.184    L44.621,27.057z"/>
		<path fill="#E82E00" d="M44.609,27.051c-3.356-2.188-6.492-4.006-11.466-4.146c-3.63,0.073-6.419,0.537-12.211,2.836    c-0.086-0.047-0.195-0.169-0.167-0.326c5.019-2.137,9.001-3.062,12.306-3.027c5.01,0.049,8.479,2.146,11.758,4.352    C44.773,26.934,44.666,27.006,44.609,27.051z"/>
	</g>
	<path fill="#E32E00" d="M26.901,3.938l0.057,0.017l-6.179,21.449c-0.014-0.01-0.076-0.022-0.076-0.022L26.901,3.938z"/>
	
		<linearGradient id="SVGID_39_" gradientUnits="userSpaceOnUse" x1="310.3804" y1="-681.8662" x2="334.4761" y2="-681.8662" gradientTransform="matrix(1 0 0 -1 -283.4199 -678.6748)">
		<stop offset="0" style="stop-color:#FC2B21"/>
		<stop offset="0.236" style="stop-color:#FF590A"/>
		<stop offset="0.2478" style="stop-color:#FB570B"/>
		<stop offset="0.3274" style="stop-color:#E74C0E"/>
		<stop offset="0.4172" style="stop-color:#D84511"/>
		<stop offset="0.5247" style="stop-color:#D04013"/>
		<stop offset="0.6966" style="stop-color:#CD3F13"/>
		<stop offset="0.7958" style="stop-color:#D04213"/>
		<stop offset="0.8688" style="stop-color:#D84B14"/>
		<stop offset="0.9334" style="stop-color:#E65B16"/>
		<stop offset="0.9927" style="stop-color:#F97219"/>
		<stop offset="1" style="stop-color:#FC7519"/>
	</linearGradient>
	<path opacity="0.66" fill="url(#SVGID_39_)" enable-background="new    " d="M51.021,5.383c-5.451-3.688-11.545-6.541-24.06-1.429   c0.026-0.109,0.053-0.146,0.053-0.146c12.576-5.2,18.597-2.26,24.042,1.428L51.021,5.383z"/>
	<path opacity="0.33" fill="#FE8411" enable-background="new    " d="M50.301,6.09c-4.44-2.883-10.309-6.494-22.824-1.383   c0.028-0.107,0.06-0.163,0.06-0.163c12.574-5.199,18.501-1.238,22.809,1.39L50.301,6.09z"/>
	<g opacity="0.6">
		
			<linearGradient id="SVGID_40_" gradientUnits="userSpaceOnUse" x1="304.1792" y1="-693.7783" x2="310.9497" y2="-693.7783" gradientTransform="matrix(1 0 0 -1 -283.4199 -678.6748)">
			<stop offset="0" style="stop-color:#FD7E36"/>
			<stop offset="1" style="stop-color:#BD6F4F"/>
		</linearGradient>
		<path opacity="0.6" fill="url(#SVGID_40_)" enable-background="new    " d="M27.165,4.097c-0.035,0.014-0.156-0.003-0.156-0.003    l-6.25,21.645l0.462,0.311c0.016,0.015,0.033,0.029,0.047,0.033c0.079,0.034,0.095,0.034,0.12,0.029l6.123-21.497L27.53,4.55    L27.165,4.097z"/>
	</g>
	
		<linearGradient id="SVGID_41_" gradientUnits="userSpaceOnUse" x1="335.438" y1="-685.001" x2="316.4056" y2="-680.7586" gradientTransform="matrix(1 0 0 -1 -283.4199 -678.6748)">
		<stop offset="0" style="stop-color:#FE560D"/>
		<stop offset="1" style="stop-color:#8C1501"/>
	</linearGradient>
	<path opacity="0.5" fill="url(#SVGID_41_)" enable-background="new    " d="M50.332,5.951c0.002,0.003,0.004,0.004,0.007,0.008   c0-0.008,0.001-0.01,0.001-0.014L50.332,5.951z"/>
	
		<linearGradient id="SVGID_42_" gradientUnits="userSpaceOnUse" x1="322.4155" y1="-684.8071" x2="322.1418" y2="-677.3276" gradientTransform="matrix(1 0 0 -1 -283.4199 -678.6748)">
		<stop offset="0" style="stop-color:#FE560D"/>
		<stop offset="1" style="stop-color:#8C1501"/>
	</linearGradient>
	<path opacity="0.5" fill="url(#SVGID_42_)" enable-background="new    " d="M50.484,5.459c-2.067-1.385-5.508-3.633-10.541-3.985   C34.604,1.1,27.839,3.816,27.165,4.097l0.364,0.453L27.51,4.613c0.019-0.004,0.037-0.015,0.055-0.022   c12.466-5.361,20.144-0.52,22.767,1.36l0.009-0.006l0.392-0.321C50.653,5.571,50.57,5.516,50.484,5.459z"/>
	<path opacity="0.5" fill="#FFF4C5" enable-background="new    " d="M27.165,4.097c0.675-0.28,7.439-2.997,12.778-2.622   c5.033,0.352,8.474,2.601,10.541,3.985c0.085,0.057,0.168,0.112,0.247,0.165l0.387-0.311c-0.017-0.026-0.028-0.056-0.056-0.074   c-5.326-3.608-11.211-6.497-23.229-1.761c-0.269,0.109-0.538,0.213-0.812,0.328l0,0L27.165,4.097z"/>
	
		<linearGradient id="SVGID_43_" gradientUnits="userSpaceOnUse" x1="327.5444" y1="-694.9336" x2="334.5747" y2="-694.9336" gradientTransform="matrix(1 0 0 -1 -283.4199 -678.6748)">
		<stop offset="0" style="stop-color:#FD7E36"/>
		<stop offset="1" style="stop-color:#FC895B"/>
	</linearGradient>
	<path opacity="0.6" fill="url(#SVGID_43_)" enable-background="new    " d="M51.056,5.245l-0.035,0.139l-0.29,0.241L50.34,5.945   c0,0.003-0.001,0.006-0.001,0.014c-1.298,4.452-5.355,18.351-6.215,21.25c0.01,0.004,0.017,0.006,0.028,0.014   c0.003,0.002,0.01,0.006,0.013,0.007l0,0c0,0,0.126,0.063,0.232,0.036l0.388-0.176c-0.001,0.002-0.004,0-0.011,0.002   c0.004-0.002,0.007,0,0.009-0.002c0.049-0.039,0.144-0.097,0.171-0.199l0,0l0.001-0.008c0-0.002,0.003-0.002,0.003-0.006l0,0   l5.938-20.509l0,0l0.147-0.505l0.005-0.021l0.099-0.336C51.167,5.434,51.154,5.289,51.056,5.245z"/>
	
		<linearGradient id="SVGID_44_" gradientUnits="userSpaceOnUse" x1="304.1948" y1="-703.3833" x2="328.2642" y2="-703.3833" gradientTransform="matrix(1 0 0 -1 -283.4199 -678.6748)">
		<stop offset="0" style="stop-color:#FD9B20"/>
		<stop offset="0.25" style="stop-color:#FD9B20"/>
		<stop offset="0.3365" style="stop-color:#FDB830"/>
		<stop offset="0.4292" style="stop-color:#FED23E"/>
		<stop offset="0.4851" style="stop-color:#FEDB43"/>
		<stop offset="0.75" style="stop-color:#FE8411"/>
		<stop offset="1" style="stop-color:#FE560D"/>
	</linearGradient>
	<path opacity="0.5" fill="url(#SVGID_44_)" enable-background="new    " d="M44.622,27.043c-3.354-2.19-6.492-4.009-11.463-4.15   c-3.632,0.074-6.42,0.537-12.212,2.836c-0.089-0.045-0.195-0.167-0.167-0.324c5.019-2.138,9.001-3.062,12.308-3.029   c5.008,0.054,8.478,2.146,11.756,4.354C44.787,26.92,44.68,26.998,44.622,27.043z"/>
	<path fill="none" d="M26.96,3.838c-0.023,0.02-0.046,0.05-0.059,0.099l-0.318,1.092l-5.879,20.352   c-0.034,0.107,0.023,0.291,0.084,0.334c0.006,0.004,0.01,0.004,0.016,0.008l0.013,0.012l-0.059,0.004l6.25-21.644   c0,0,0.122,0.017,0.156,0.003L26.96,3.838z"/>
	<path fill="#F83603" d="M51.056,5.236l0.007,0.004c0.08,0.054,0.109,0.158,0.085,0.262l-0.005,0.009   c-0.032-0.038-0.056-0.076-0.125-0.13L51.056,5.236z"/>
	<g>
		<g>
			
				<linearGradient id="SVGID_45_" gradientUnits="userSpaceOnUse" x1="310.3218" y1="-682.5557" x2="310.4431" y2="-682.5557" gradientTransform="matrix(1 0 0 -1 -283.4199 -678.6748)">
				<stop offset="0" style="stop-color:#FD7E36"/>
				<stop offset="1" style="stop-color:#BD6F4F"/>
			</linearGradient>
			<path id="SVGID_46_" fill="url(#SVGID_45_)" d="M26.96,3.955l-0.058-0.015c0.025-0.092,0.089-0.123,0.112-0.131l0.009-0.002     C27.023,3.806,26.993,3.851,26.96,3.955z"/>
		</g>
	</g>
	
		<linearGradient id="SVGID_47_" gradientUnits="userSpaceOnUse" x1="310.3804" y1="-681.8672" x2="334.4761" y2="-681.8672" gradientTransform="matrix(1 0 0 -1 -283.4199 -678.6748)">
		<stop offset="0" style="stop-color:#FC2B21"/>
		<stop offset="0.236" style="stop-color:#FF590A"/>
		<stop offset="0.2478" style="stop-color:#FB570B"/>
		<stop offset="0.3274" style="stop-color:#E74C0E"/>
		<stop offset="0.4172" style="stop-color:#D84511"/>
		<stop offset="0.5247" style="stop-color:#D04013"/>
		<stop offset="0.6966" style="stop-color:#CD3F13"/>
		<stop offset="0.7958" style="stop-color:#D04213"/>
		<stop offset="0.8688" style="stop-color:#D84B14"/>
		<stop offset="0.9334" style="stop-color:#E65B16"/>
		<stop offset="0.9927" style="stop-color:#F97219"/>
		<stop offset="1" style="stop-color:#FC7519"/>
	</linearGradient>
	<path opacity="0.66" fill="url(#SVGID_47_)" enable-background="new    " d="M51.021,5.383C45.573,1.695,39.476-1.156,26.96,3.956   c0.027-0.106,0.054-0.146,0.054-0.146c12.576-5.2,18.597-2.26,24.042,1.428L51.021,5.383z"/>
</g>
<g>
	
		<radialGradient id="SVGID_48_" cx="328.7046" cy="-708.6143" r="33.431" gradientTransform="matrix(1 0 0 -1 -283.4199 -678.6748)" gradientUnits="userSpaceOnUse">
		<stop offset="0.005" style="stop-color:#D1E787"/>
		<stop offset="0.1227" style="stop-color:#CEE583"/>
		<stop offset="0.2473" style="stop-color:#C4DE76"/>
		<stop offset="0.3751" style="stop-color:#B3D361"/>
		<stop offset="0.5051" style="stop-color:#9CC443"/>
		<stop offset="0.6356" style="stop-color:#7FB01D"/>
		<stop offset="0.6495" style="stop-color:#7BAE19"/>
		<stop offset="0.7789" style="stop-color:#578D19"/>
		<stop offset="0.922" style="stop-color:#366E1A"/>
		<stop offset="1" style="stop-color:#29621A"/>
	</radialGradient>
	<path fill="url(#SVGID_48_)" d="M78.316,9.023c-12.557,5.189-18.59,2.271-24.026-1.391l-6.195,21.481   c5.432,3.684,11.996,6.703,24.035,1.317L78.316,9.023z"/>
	
		<linearGradient id="SVGID_49_" gradientUnits="userSpaceOnUse" x1="337.7085" y1="-688.3081" x2="361.8521" y2="-688.3081" gradientTransform="matrix(1 0 0 -1 -283.4199 -678.6748)">
		<stop offset="0" style="stop-color:#D3ED89"/>
		<stop offset="1" style="stop-color:#5F821C"/>
	</linearGradient>
	<path fill="url(#SVGID_49_)" d="M78.29,9.04c-12.556,5.188-18.566,2.269-24.002-1.389c0.013-0.048,0.033-0.14,0-0.231   c5.436,3.66,11.595,6.608,24.144,1.417C78.329,8.896,78.321,8.967,78.29,9.04z"/>
	<polygon fill="#8CAC42" points="53.327,7.907 53.778,7.586 47.645,28.877 47.173,29.254 47.173,29.207  "/>
	
		<linearGradient id="SVGID_50_" gradientUnits="userSpaceOnUse" x1="334.6558" y1="-697.0488" x2="334.0822" y2="-696.8844" gradientTransform="matrix(1 0 0 -1 -283.4199 -678.6748)">
		<stop offset="0.2822" style="stop-color:#D3ED89"/>
		<stop offset="0.4045" style="stop-color:#D3ED89"/>
		<stop offset="1" style="stop-color:#5F821C"/>
	</linearGradient>
	<path fill="url(#SVGID_50_)" d="M48.108,29.123c-0.188-0.109-0.329-0.326-0.499-0.259l6.146-21.267   c0.095-0.043,0.331-0.122,0.557,0.053L48.108,29.123z"/>
	<path fill="#5F821C" d="M53.833,7.45l-0.062,0.151l-0.448,0.323c0.04-0.146,0.385-0.387,0.485-0.463   C53.829,7.453,53.833,7.45,53.833,7.45z"/>
	
		<linearGradient id="SVGID_51_" gradientUnits="userSpaceOnUse" x1="337.7329" y1="-686.1826" x2="337.1815" y2="-686.144" gradientTransform="matrix(1 0 0 -1 -283.4199 -678.6748)">
		<stop offset="0" style="stop-color:#7AA922"/>
		<stop offset="0.2" style="stop-color:#D3ED89"/>
		<stop offset="0.525" style="stop-color:#D3ED89"/>
		<stop offset="1" style="stop-color:#7AA922"/>
	</linearGradient>
	<path fill="url(#SVGID_51_)" d="M54.291,7.632c-0.233-0.141-0.446-0.07-0.539-0.03c0.013-0.047,0.055-0.141,0.055-0.141   c0.203-0.126,0.287-0.131,0.48-0.042C54.312,7.491,54.321,7.562,54.291,7.632z"/>
	
		<linearGradient id="SVGID_52_" gradientUnits="userSpaceOnUse" x1="355.9624" y1="-698.7163" x2="362.6792" y2="-698.7163" gradientTransform="matrix(1 0 0 -1 -283.4199 -678.6748)">
		<stop offset="0.0056" style="stop-color:#7AA922"/>
		<stop offset="0.1685" style="stop-color:#1D4A20"/>
		<stop offset="0.382" style="stop-color:#26551B"/>
		<stop offset="1" style="stop-color:#7AA922"/>
	</linearGradient>
	<polygon opacity="0.81" fill="url(#SVGID_52_)" enable-background="new    " points="72.542,30.528 78.752,9.144 79.259,9.545    73.015,30.939  "/>
	<path fill="#476E32" d="M73.137,31.097c0.015-0.125-0.112-0.224-0.112-0.224L79.25,9.524c0,0,0.101,0.088,0.126,0.15L73.137,31.097   z"/>
	<path fill="#1D3419" d="M72.929,31.295c-3.355,1.524-6.527,2.312-9.475,2.566c-5.092,0.573-9.211-0.529-12.572-2.183   c-1.31-0.603-2.491-1.281-3.541-1.988l0.058-0.043c1.064,0.711,2.219,1.411,3.483,2.031c3.418,1.567,7.683,2.604,12.572,2.184   c2.783-0.317,5.86-1.141,9.259-2.646C72.809,31.291,72.929,31.295,72.929,31.295z"/>
	
		<linearGradient id="SVGID_53_" gradientUnits="userSpaceOnUse" x1="355.9985" y1="-709.3218" x2="355.4579" y2="-709.2839" gradientTransform="matrix(1 0 0 -1 -283.4199 -678.6748)">
		<stop offset="0" style="stop-color:#7AA922"/>
		<stop offset="1" style="stop-color:#D3ED89"/>
	</linearGradient>
	<path fill="url(#SVGID_53_)" d="M72.25,30.896c0,0-0.237-0.214-0.197-0.525c0.329-0.087,0.536,0.116,0.536,0.116   S72.524,30.778,72.25,30.896z"/>
	
		<linearGradient id="SVGID_54_" gradientUnits="userSpaceOnUse" x1="356.2407" y1="-709.3682" x2="355.8973" y2="-709.7496" gradientTransform="matrix(1 0 0 -1 -283.4199 -678.6748)">
		<stop offset="0" style="stop-color:#5F821C"/>
		<stop offset="1" style="stop-color:#26551B"/>
	</linearGradient>
	<path fill="url(#SVGID_54_)" d="M72.589,30.487l0.444,0.396c0,0-0.067,0.246-0.337,0.365l-0.465-0.396   C72.508,30.736,72.589,30.487,72.589,30.487z"/>
	
		<linearGradient id="SVGID_55_" gradientUnits="userSpaceOnUse" x1="331.2837" y1="-710.043" x2="355.7378" y2="-710.043" gradientTransform="matrix(1 0 0 -1 -283.4199 -678.6748)">
		<stop offset="0" style="stop-color:#7AA922"/>
		<stop offset="0.4" style="stop-color:#D3ED89"/>
		<stop offset="1" style="stop-color:#7AA922"/>
	</linearGradient>
	<path fill="url(#SVGID_55_)" d="M72.13,30.359c-0.044,0.312,0.188,0.545,0.188,0.545c-12.55,5.189-19.016,2.141-24.454-1.545   c0.096-0.064,0.109-0.064,0.172-0.291C53.47,32.752,61.684,35.33,72.13,30.359z"/>
	<path fill="#26551B" d="M47.399,29.67l0.468-0.312c5.437,3.501,11.859,6.525,24.401,1.484l0.45,0.396   C60.679,36.549,52.979,33.594,47.399,29.67z"/>
	<path fill="#5F821C" d="M73.137,31.097c-0.058,0.114-0.17,0.182-0.208,0.196c-0.008,0.006-0.013,0.006-0.013,0.006   s-0.083,0.017-0.202-0.062c0.25-0.131,0.319-0.404,0.319-0.404S73.175,30.957,73.137,31.097z"/>
	<path fill="#26551B" d="M47.418,29.664l-0.055,0.045c0,0-0.303-0.168-0.189-0.502C47.202,29.541,47.418,29.664,47.418,29.664z"/>
	
		<linearGradient id="SVGID_56_" gradientUnits="userSpaceOnUse" x1="331.1343" y1="-708.1714" x2="330.7467" y2="-707.7409" gradientTransform="matrix(1 0 0 -1 -283.4199 -678.6748)">
		<stop offset="0" style="stop-color:#1D3A19"/>
		<stop offset="0.1" style="stop-color:#26551B"/>
		<stop offset="0.65" style="stop-color:#7AA922"/>
		<stop offset="1" style="stop-color:#D3ED89"/>
	</linearGradient>
	<path fill="url(#SVGID_56_)" d="M47.173,29.207l0.453-0.356c-0.028,0.345,0.267,0.485,0.267,0.485l-0.458,0.354   C47.435,29.691,47.149,29.547,47.173,29.207z"/>
	
		<linearGradient id="SVGID_57_" gradientUnits="userSpaceOnUse" x1="331.1226" y1="-707.4766" x2="331.4036" y2="-707.9836" gradientTransform="matrix(1 0 0 -1 -283.4199 -678.6748)">
		<stop offset="0" style="stop-color:#5F821C"/>
		<stop offset="0.4045" style="stop-color:#7AA922"/>
		<stop offset="0.8" style="stop-color:#5F821C"/>
		<stop offset="1" style="stop-color:#5F821C"/>
	</linearGradient>
	<path fill="url(#SVGID_57_)" d="M47.615,28.85c0.156-0.053,0.293,0.113,0.481,0.264c-0.063,0.221-0.114,0.182-0.21,0.248   C47.775,29.299,47.584,29.133,47.615,28.85z"/>
	
		<linearGradient id="SVGID_58_" gradientUnits="userSpaceOnUse" x1="362.4038" y1="-688.0254" x2="362.4837" y2="-687.7537" gradientTransform="matrix(1 0 0 -1 -283.4199 -678.6748)">
		<stop offset="0" style="stop-color:#5B7F30"/>
		<stop offset="1" style="stop-color:#D3ED89"/>
	</linearGradient>
	<path opacity="0.72" fill="url(#SVGID_58_)" enable-background="new    " d="M79.3,9.324c0.006,0.079-0.053,0.212-0.053,0.212   l-0.482-0.388c0,0,0.07-0.159,0.035-0.279C78.962,8.938,79.273,9.277,79.3,9.324z"/>
	
		<linearGradient id="SVGID_59_" gradientUnits="userSpaceOnUse" x1="361.9067" y1="-691.4551" x2="337.3246" y2="-684.4062" gradientTransform="matrix(1 0 0 -1 -283.4199 -678.6748)">
		<stop offset="0" style="stop-color:#1D3419"/>
		<stop offset="0.2277" style="stop-color:#26551B"/>
		<stop offset="1" style="stop-color:#7AA922"/>
	</linearGradient>
	<path opacity="0.33" fill="url(#SVGID_59_)" enable-background="new    " d="M79.29,9.305c-0.094-0.127-0.238-0.24-0.351-0.343   c-0.212-0.194-0.476-0.152-0.538-0.115l-0.003,0.007c-12.523,5.17-18.676,2.222-24.109-1.435c0.012,0.027,0.013,0.054,0.016,0.08   c-0.003-0.026-0.004-0.053-0.016-0.08c-0.192-0.088-0.277-0.084-0.48,0.042c-0.078,0.055-0.28,0.205-0.397,0.333   C55.501,9.554,64.383,16.513,79.29,9.305z M54.291,7.632L54.291,7.632l-0.003,0.004c0-0.004-0.001-0.004-0.003-0.005   C54.287,7.632,54.288,7.632,54.291,7.632c0.013-0.029,0.013-0.056,0.015-0.084C54.304,7.583,54.3,7.611,54.291,7.632z"/>
	
		<linearGradient id="SVGID_60_" gradientUnits="userSpaceOnUse" x1="359.1392" y1="-698.5151" x2="358.57" y2="-698.3518" gradientTransform="matrix(1 0 0 -1 -283.4199 -678.6748)">
		<stop offset="0" style="stop-color:#5F821C"/>
		<stop offset="1" style="stop-color:#75C146"/>
	</linearGradient>
	<path opacity="0.72" fill="url(#SVGID_60_)" enable-background="new    " d="M72.072,30.409L78.28,9.033   c0.339-0.062,0.501,0.13,0.501,0.13l-6.192,21.322C72.589,30.487,72.335,30.295,72.072,30.409z"/>
	
		<linearGradient id="SVGID_61_" gradientUnits="userSpaceOnUse" x1="361.7104" y1="-687.9199" x2="362.8149" y2="-687.9199" gradientTransform="matrix(1 0 0 -1 -283.4199 -678.6748)">
		<stop offset="0" style="stop-color:#D3ED89"/>
		<stop offset="1" style="stop-color:#5F821C"/>
	</linearGradient>
	<path opacity="0.6" fill="url(#SVGID_61_)" enable-background="new    " d="M78.29,9.04c0.018-0.082,0.029-0.118,0.11-0.193   c0.063-0.037,0.326-0.079,0.538,0.115c0.212,0.191,0.538,0.413,0.438,0.714c-0.026-0.062-0.121-0.14-0.121-0.14l-0.474-0.373   C78.781,9.163,78.628,8.979,78.29,9.04z"/>
	
		<linearGradient id="SVGID_62_" gradientUnits="userSpaceOnUse" x1="361.8032" y1="-691.7119" x2="337.291" y2="-684.6832" gradientTransform="matrix(1 0 0 -1 -283.4199 -678.6748)">
		<stop offset="0" style="stop-color:#93BF81"/>
		<stop offset="0.2277" style="stop-color:#26551B"/>
		<stop offset="1" style="stop-color:#BDE256"/>
	</linearGradient>
	<path opacity="0.3" fill="url(#SVGID_62_)" enable-background="new    " d="M53.411,7.794c-0.032,0.039-0.063,0.073-0.078,0.107   l-0.005,0.006L53.306,7.98c1.891,1.6,10.857,8.963,26.083,1.551c-0.009-0.083-0.045-0.159-0.098-0.228   C64.383,16.513,55.501,9.554,53.411,7.794z"/>
	
		<linearGradient id="SVGID_63_" gradientUnits="userSpaceOnUse" x1="362.4048" y1="-688.0264" x2="362.4849" y2="-687.754" gradientTransform="matrix(1 0 0 -1 -283.4199 -678.6748)">
		<stop offset="0" style="stop-color:#5B7F30"/>
		<stop offset="1" style="stop-color:#D3ED89"/>
	</linearGradient>
	<path opacity="0.72" fill="url(#SVGID_63_)" enable-background="new    " d="M79.3,9.325c0.006,0.078-0.053,0.21-0.053,0.21   l-0.481-0.388c0,0,0.07-0.158,0.038-0.279C78.962,8.938,79.273,9.279,79.3,9.325z"/>
	
		<linearGradient id="SVGID_64_" gradientUnits="userSpaceOnUse" x1="361.7104" y1="-687.9209" x2="362.8149" y2="-687.9209" gradientTransform="matrix(1 0 0 -1 -283.4199 -678.6748)">
		<stop offset="0" style="stop-color:#D3ED89"/>
		<stop offset="1" style="stop-color:#5F821C"/>
	</linearGradient>
	<path opacity="0.6" fill="url(#SVGID_64_)" enable-background="new    " d="M78.29,9.04c0.018-0.082,0.029-0.118,0.112-0.193   c0.062-0.037,0.326-0.079,0.536,0.117c0.212,0.19,0.539,0.41,0.439,0.713c-0.028-0.063-0.122-0.14-0.122-0.14l-0.474-0.375   C78.782,9.163,78.628,8.979,78.29,9.04z"/>
</g>
<path d="M70.812,55.51c0,0.277-0.096,0.516-0.289,0.705c-0.192,0.188-0.429,0.281-0.712,0.281c-0.285,0-0.521-0.093-0.709-0.277  c-0.188-0.184-0.282-0.42-0.282-0.699c0-0.276,0.096-0.514,0.286-0.703c0.192-0.189,0.428-0.284,0.713-0.284  c0.279,0,0.512,0.091,0.701,0.271C70.715,54.991,70.812,55.227,70.812,55.51z M70.693,55.517c0-0.249-0.085-0.459-0.255-0.626  c-0.169-0.166-0.376-0.251-0.62-0.251c-0.254,0-0.463,0.085-0.631,0.253c-0.167,0.169-0.25,0.377-0.25,0.624  c0,0.251,0.086,0.463,0.259,0.63c0.168,0.169,0.375,0.25,0.622,0.25c0.241,0,0.448-0.082,0.619-0.251  C70.607,55.976,70.693,55.768,70.693,55.517z M70.298,56.138h-0.214l-0.139-0.308c-0.069-0.149-0.145-0.228-0.225-0.228h-0.116  v0.534h-0.178v-1.271h0.357c0.156,0,0.276,0.034,0.358,0.107c0.069,0.061,0.104,0.141,0.104,0.235c0,0.088-0.028,0.162-0.085,0.225  c-0.056,0.062-0.134,0.104-0.237,0.123v0.006c0.071,0.016,0.14,0.095,0.21,0.232L70.298,56.138z M70.055,55.237  c0-0.071-0.021-0.126-0.061-0.157c-0.046-0.037-0.125-0.058-0.234-0.058h-0.157v0.433h0.19  C69.967,55.455,70.055,55.381,70.055,55.237z"/>
<g id="Layer_2">
</g>
</svg>